<svg width="533" height="325" viewBox="0 0 533 325" fill="none" xmlns="http://www.w3.org/2000/svg">
<g opacity="0.3" filter="url(#filter0_f)">
<path d="M126.675 249.453L49.8257 275.282L8 270.454L16.4906 234.921L36.8487 229.176L107.137 237.094L133.911 228.066L175.978 232.797L149.204 241.873L167.681 243.949L145.152 251.529L126.675 249.453ZM84.6082 244.673L51.9002 241.004L46.1111 256.453L45.7734 257.757L84.6082 244.673Z" fill="url(#paint0_linear)"/>
</g>
<g opacity="0.3" filter="url(#filter1_f)">
<path d="M434.347 282.861L357.498 308.738L315.672 303.91L324.162 268.378L344.521 262.633L414.809 270.55L441.583 261.522L483.65 266.254L456.876 275.282L475.353 277.358L452.824 284.937L434.347 282.861ZM392.232 278.082L359.524 274.413L353.735 289.862L353.397 291.165L392.232 278.082Z" fill="url(#paint1_linear)"/>
</g>
<g opacity="0.3" filter="url(#filter2_f)">
<path d="M321.997 253.46C320.212 249.115 309.309 245.783 289.241 243.514C269.027 241.245 248.717 241.052 228.359 242.887C208.001 244.77 189.332 248.535 172.399 254.232L158.553 258.915C157.926 258.867 157.347 258.819 156.72 258.819C151.606 258.481 146.107 258.384 140.366 258.529C136.651 258.625 132.889 258.77 128.692 259.446C124.88 260.074 122.999 261.136 122.854 262.295C122.661 263.646 122.372 264.998 122.275 266.35C122.179 268.233 122.179 270.067 122.227 271.902C122.227 272.24 122.131 272.53 121.262 272.868C120.925 273.012 120.635 273.157 120.346 273.302C118.609 274.268 117.692 275.185 118.078 275.957C118.127 276.054 117.982 276.247 117.741 276.392C114.653 278.082 111.566 279.771 108.382 281.461C104.86 283.344 101.628 285.227 98.685 287.11C98.2026 287.448 97.7684 287.785 97.5272 288.123C96.3694 289.668 95.4528 291.165 94.1985 292.71C92.1241 295.269 91.7865 297.538 92.2206 299.71C92.6548 302.027 94.295 304.055 96.4659 305.986C96.8036 306.276 97.3343 306.469 97.7202 306.759C98.3473 307.242 98.8298 307.773 99.4569 308.255C99.7946 308.497 100.181 308.738 100.566 308.98C100.663 308.69 100.566 308.497 100.518 308.255C100.952 308.255 101.049 308.352 101.145 308.448C101.869 309.655 102.979 310.718 104.619 311.683C105.053 311.924 105.68 312.118 106.018 312.359C106.838 312.987 108.189 313.469 109.829 313.759C112.048 314.194 114.364 314.58 116.631 315.014C116.92 315.063 116.969 315.207 117.162 315.304C117.885 315.449 118.609 315.545 119.381 315.69C119.719 315.69 120.153 315.594 120.346 315.642C122.517 315.98 124.929 316.221 127.582 316.27C129.994 316.318 132.503 316.318 135.059 316.221C138.292 316.125 141.669 315.835 144.901 315.738C148.857 315.594 152.716 315.497 156.624 315.401C157.01 315.401 157.395 315.352 157.781 315.304C163.715 314.821 169.745 313.952 175.92 312.794C185.906 310.911 195.024 308.304 203.611 305.214C210.944 302.559 217.601 299.71 223.969 296.813C225.658 296.041 226.912 295.751 228.697 295.751C230 295.751 231.254 295.462 232.363 294.931C233.811 294.255 235.306 293.579 236.802 292.903C237.236 292.71 237.911 292.517 238.49 292.42C240.999 292.034 243.314 291.503 245.389 290.634C246.161 290.296 246.884 289.958 247.704 289.668C249.007 289.186 249.538 288.751 249.634 288.268C249.827 287.303 248.235 287.013 246.498 286.723C244.858 286.434 243.604 286.385 242.494 286.241C242.108 286.192 241.915 286.096 241.722 286.047C242.494 285.758 243.363 285.565 243.748 285.323C244.327 284.985 244.569 284.599 244.906 284.261C255.905 282.233 266.374 279.578 276.264 276.247L299.227 268.522C316.16 262.874 323.782 257.805 321.997 253.46ZM276.167 255.053C275.347 256.887 270.426 259.301 261.453 262.343L230.241 272.819C227.202 273.833 224.259 274.75 221.316 275.571C221.123 275.33 220.834 275.088 220.399 274.895C220.062 274.75 219.628 274.606 219.097 274.509C218.421 274.412 217.65 274.364 216.685 274.364C216.154 274.316 216.009 274.219 215.913 274.171C215.334 273.785 214.852 273.399 214.224 273.012C210.462 270.598 206.65 268.185 202.888 265.771C201.923 265.143 200.717 264.612 199.366 264.129L218.084 257.853C227.491 254.667 236.078 252.542 243.893 251.48C251.66 250.418 259.234 250.273 266.663 251.094C273.851 251.915 276.987 253.267 276.167 255.053Z" fill="url(#paint2_linear)"/>
</g>
<path d="M95.8242 138.799L131.571 128.613L165.293 132.378L129.545 142.517L95.8242 138.799Z" fill="#CC743B"/>
<path d="M129.501 75.4587L126.799 80.2382L95.8281 138.8L131.575 128.613L162.498 70.0998L165.2 65.272L129.501 75.4587Z" fill="#A15B2E"/>
<path d="M172.969 186.305L208.716 176.118L208.764 222.417L173.017 232.555L172.969 186.305Z" fill="#A15B2E"/>
<path d="M191.969 149.469L227.716 139.33V178.243L192.017 188.429L191.969 149.469Z" fill="#A15B2E"/>
<path d="M172.922 147.345L208.669 137.206L227.725 139.33L191.977 149.469L172.922 147.345Z" fill="#CC743B"/>
<path d="M172.77 14.5315L208.517 4.39307L208.662 137.206L172.914 147.344L172.77 14.5315Z" fill="#A15B2E"/>
<path d="M129.402 10.1384L165.15 0L208.519 4.39331L172.772 14.5317L129.402 10.1384Z" fill="#CC743B"/>
<path d="M172.917 147.344L191.973 149.469L192.021 188.429L172.965 186.305L173.013 232.555L129.644 227.728L129.596 181.477L57.1363 173.415L54.5312 142.275L129.403 10.1382L172.772 14.5315L172.917 147.344ZM129.547 142.517L129.499 75.4101L126.798 80.1897L95.8263 138.751L129.547 142.517Z" fill="#F68C47"/>
<path d="M318.458 197.457L282.807 207.596C282.662 207.644 282.469 207.692 282.325 207.74C282.228 207.74 282.132 207.789 282.035 207.789C281.794 207.837 281.505 207.885 281.263 207.934C281.167 207.934 281.07 207.982 280.974 207.982C280.829 208.03 280.636 208.03 280.491 208.03C280.395 208.03 280.299 208.078 280.154 208.078C280.009 208.078 279.913 208.127 279.768 208.127C279.575 208.127 279.382 208.175 279.189 208.175C278.996 208.175 278.803 208.175 278.562 208.175H278.514H278.465C278.417 208.175 278.417 208.175 278.369 208.175C278.176 208.175 277.983 208.175 277.838 208.175C277.645 208.175 277.452 208.175 277.307 208.127C277.259 208.127 277.211 208.127 277.163 208.127C277.066 208.127 277.018 208.127 276.922 208.127C276.825 208.127 276.68 208.127 276.584 208.078C276.439 208.078 276.246 208.03 276.101 208.03C275.957 208.03 275.764 207.982 275.619 207.982C275.474 207.982 275.33 207.934 275.185 207.934C275.088 207.934 274.992 207.885 274.847 207.885C274.751 207.885 274.654 207.837 274.509 207.837H274.461H274.365C274.317 207.837 274.268 207.837 274.22 207.789C274.027 207.74 273.834 207.692 273.641 207.644C273.496 207.596 273.4 207.596 273.255 207.547H273.207C272.821 207.451 272.483 207.354 272.097 207.258H272.049C271.953 207.209 271.904 207.209 271.808 207.161C271.711 207.113 271.615 207.113 271.518 207.065C271.374 207.016 271.181 206.968 271.036 206.871C270.988 206.871 270.94 206.823 270.891 206.823C270.795 206.775 270.65 206.727 270.554 206.678C270.409 206.63 270.312 206.582 270.168 206.533C270.071 206.485 270.023 206.485 269.926 206.437C269.83 206.389 269.782 206.34 269.685 206.34C269.589 206.292 269.492 206.244 269.396 206.196H269.348C269.299 206.196 269.299 206.147 269.251 206.147C269.155 206.099 269.058 206.051 268.962 206.002C268.576 205.809 268.238 205.616 267.852 205.375C267.756 205.326 267.659 205.23 267.514 205.182C267.418 205.133 267.37 205.085 267.321 205.037C267.225 204.989 267.128 204.892 266.984 204.795C266.984 204.795 266.984 204.795 266.935 204.747C266.839 204.699 266.743 204.602 266.646 204.554C266.55 204.506 266.453 204.409 266.357 204.313C266.308 204.313 266.308 204.264 266.308 204.264C266.212 204.168 266.067 204.071 265.971 204.023C265.874 203.975 265.826 203.878 265.729 203.83C265.585 203.733 265.488 203.637 265.344 203.492C265.199 203.395 265.102 203.251 264.958 203.154C264.909 203.106 264.909 203.106 264.861 203.057C264.813 203.009 264.765 202.961 264.716 202.913C264.716 202.913 264.716 202.913 264.668 202.864C264.62 202.816 264.572 202.768 264.523 202.719C264.33 202.526 264.137 202.333 263.945 202.14C263.8 201.995 263.703 201.899 263.607 201.754C263.462 201.609 263.317 201.416 263.173 201.223C262.931 200.933 262.69 200.595 262.449 200.306C262.256 200.064 262.111 199.823 261.918 199.581C261.774 199.388 261.677 199.243 261.532 199.05C261.436 198.906 261.388 198.809 261.291 198.664L261.243 198.616C261.146 198.471 261.098 198.374 261.002 198.23C260.953 198.133 260.905 198.037 260.857 197.988C260.712 197.747 260.568 197.457 260.423 197.216C260.326 197.071 260.278 196.926 260.182 196.781C259.844 196.154 259.506 195.478 259.217 194.802C259.12 194.56 259.024 194.367 258.927 194.126C258.831 193.885 258.734 193.691 258.638 193.45C258.397 192.871 258.204 192.243 257.962 191.616C257.962 191.616 257.962 191.616 257.962 191.567C257.914 191.374 257.818 191.181 257.77 190.94C257.721 190.747 257.625 190.553 257.577 190.312C257.528 190.215 257.528 190.071 257.48 189.974C257.335 189.491 257.191 189.008 257.046 188.477C256.998 188.333 256.949 188.139 256.901 187.995C256.805 187.705 256.756 187.415 256.66 187.126C256.612 186.836 256.515 186.546 256.467 186.257C256.419 186.112 256.419 186.015 256.371 185.87C256.322 185.726 256.274 185.532 256.274 185.339C256.226 185.146 256.178 185.001 256.178 184.808C256.129 184.567 256.081 184.326 256.033 184.084C256.033 183.988 255.985 183.891 255.985 183.794C255.936 183.505 255.888 183.215 255.84 182.925C255.357 180.415 254.971 177.663 254.682 174.718C254.682 174.573 254.634 174.477 254.634 174.38C254.634 174.139 254.586 173.946 254.586 173.704C254.441 172.015 254.296 170.277 254.2 168.49C254.2 168.104 254.151 167.766 254.151 167.38C254.151 167.283 254.151 167.139 254.151 167.042C254.151 166.994 254.151 166.994 254.151 166.945C254.103 166.173 254.103 165.352 254.055 164.532C254.055 164.435 254.055 164.387 254.055 164.29C254.055 164 254.055 163.711 254.055 163.421C254.055 162.89 254.055 162.359 254.007 161.828C254.007 160.718 253.958 159.559 253.958 158.352L253.91 102.639C253.91 101.577 253.958 100.563 254.007 99.5009C254.007 99.2113 254.007 98.9216 254.055 98.6319C254.103 97.3767 254.151 96.1698 254.248 94.9628C254.248 94.818 254.248 94.7214 254.248 94.6249C254.248 94.2869 254.296 93.9972 254.296 93.6593C254.344 93.2248 254.344 92.742 254.393 92.3075C254.441 91.9696 254.441 91.6316 254.489 91.2454C254.537 90.7143 254.586 90.1833 254.634 89.7005C254.634 89.4591 254.682 89.266 254.682 89.0246C254.682 88.8798 254.73 88.6866 254.73 88.5418C254.73 88.397 254.779 88.2039 254.779 88.059C254.827 87.8176 254.827 87.6245 254.875 87.3831C254.923 87.1417 254.923 86.9486 254.971 86.7072C255.02 86.5141 255.02 86.321 255.068 86.0796C255.116 85.7417 255.164 85.452 255.213 85.1141C255.261 84.6796 255.357 84.2451 255.406 83.8106C255.454 83.5692 255.502 83.3278 255.55 83.0381C255.599 82.7484 255.647 82.4588 255.695 82.2174C255.695 82.1691 255.695 82.1208 255.743 82.0725C255.743 82.0243 255.743 81.976 255.792 81.9277C255.84 81.7346 255.888 81.5415 255.888 81.3484C255.985 80.9622 256.033 80.5759 256.129 80.1897C256.178 79.9966 256.226 79.8035 256.274 79.6104C256.274 79.5621 256.274 79.5138 256.322 79.4655C256.467 78.7414 256.66 78.0655 256.853 77.4378C256.901 77.2447 256.949 77.0034 257.046 76.8102C257.046 76.7137 257.094 76.6171 257.142 76.5206C257.191 76.3757 257.191 76.2792 257.239 76.1826C257.384 75.7481 257.48 75.3136 257.625 74.9274C257.673 74.7826 257.721 74.686 257.77 74.5412C257.914 74.1549 258.059 73.7687 258.155 73.4308C258.204 73.3342 258.252 73.2377 258.252 73.1411C258.252 73.0928 258.3 73.0445 258.3 72.9963C258.3 72.948 258.348 72.8997 258.348 72.8514C258.348 72.8032 258.397 72.7066 258.445 72.6583C258.734 71.9342 259.072 71.21 259.41 70.5341C259.506 70.341 259.603 70.1479 259.699 69.9547C259.747 69.9065 259.747 69.8099 259.796 69.7616C259.796 69.7616 259.796 69.7616 259.796 69.7134C259.844 69.6651 259.844 69.5685 259.892 69.5202C259.989 69.3754 260.037 69.2306 260.133 69.134C260.23 68.9409 260.326 68.7961 260.423 68.6512C260.423 68.603 260.471 68.5547 260.471 68.5547C260.519 68.5064 260.568 68.4099 260.616 68.3616C260.664 68.265 260.761 68.1685 260.809 68.0719C260.905 67.9271 261.002 67.7822 261.098 67.6857C261.146 67.5891 261.243 67.4926 261.291 67.4443C261.291 67.396 261.339 67.396 261.388 67.3477C261.436 67.2512 261.484 67.2029 261.581 67.1063C261.677 66.9615 261.774 66.865 261.87 66.7201C261.967 66.6236 262.015 66.527 262.111 66.4305C262.208 66.3339 262.304 66.1891 262.401 66.0925C262.449 66.0442 262.449 65.9959 262.497 65.9959C262.545 65.9477 262.594 65.8994 262.642 65.8511C262.787 65.7063 262.931 65.5614 263.028 65.4649C263.124 65.3683 263.173 65.3201 263.269 65.2235C263.414 65.0787 263.559 64.9821 263.703 64.8373C263.8 64.789 263.848 64.6924 263.945 64.6442C264.282 64.3545 264.62 64.1131 265.006 63.8717C265.151 63.7752 265.247 63.7269 265.392 63.6303C265.488 63.582 265.536 63.5338 265.633 63.4855C265.778 63.3889 265.971 63.2924 266.164 63.1958C266.26 63.1475 266.357 63.0993 266.453 63.051C266.598 62.9544 266.791 62.9062 266.935 62.8096C267.032 62.7613 267.128 62.713 267.225 62.6648C267.418 62.5682 267.611 62.5199 267.756 62.4716C267.852 62.4234 267.949 62.4234 267.997 62.3751C268.142 62.3268 268.286 62.2785 268.431 62.2303C268.624 62.182 268.817 62.1337 268.962 62.0854L300.174 53.2023L304.564 51.947C304.275 52.0436 303.985 52.0919 303.744 52.1884C303.648 52.2367 303.599 52.2367 303.503 52.285C303.31 52.3815 303.117 52.4298 302.972 52.5264C302.876 52.5746 302.779 52.6229 302.683 52.6712C302.49 52.7677 302.345 52.816 302.2 52.9126C302.104 52.9609 302.007 53.0091 301.911 53.0574C301.718 53.154 301.573 53.2505 301.38 53.3471C301.284 53.3954 301.236 53.4436 301.139 53.4919C300.898 53.6368 300.657 53.7816 300.415 53.9747C300.415 53.9747 300.415 53.9747 300.367 54.023C300.126 54.1678 299.933 54.3609 299.74 54.5058C299.692 54.554 299.595 54.6506 299.547 54.6989C299.402 54.8437 299.258 54.9403 299.113 55.0851C299.016 55.1817 298.968 55.2299 298.872 55.3265C298.727 55.4713 298.582 55.6162 298.486 55.761C298.389 55.8575 298.341 55.9541 298.245 56.0024C298.148 56.0989 298.052 56.2438 297.955 56.3403C297.859 56.4369 297.762 56.5334 297.714 56.63C297.617 56.7748 297.521 56.8714 297.424 57.0162C297.328 57.1128 297.231 57.2093 297.183 57.3542C297.135 57.4507 297.038 57.5473 296.99 57.5956C296.894 57.7404 296.797 57.8852 296.701 57.9818C296.653 58.0783 296.556 58.1749 296.508 58.2715C296.411 58.368 296.363 58.5128 296.315 58.6094C296.074 58.9473 295.881 59.3336 295.688 59.7198C295.543 59.9612 295.398 60.2509 295.302 60.4922C295.109 60.8785 294.916 61.2647 294.723 61.6992C294.723 61.7475 294.675 61.7958 294.675 61.844C294.482 62.2303 294.337 62.6648 294.192 63.051C294.144 63.1475 294.096 63.2441 294.096 63.3406C293.951 63.7752 293.758 64.2097 293.613 64.6442C293.613 64.6924 293.565 64.7407 293.565 64.789C293.42 65.2235 293.276 65.6097 293.179 66.0442C293.131 66.1408 293.131 66.2856 293.083 66.3822C292.938 66.865 292.793 67.396 292.648 67.8788C292.648 67.9271 292.648 67.9753 292.6 68.0236C292.455 68.5064 292.359 68.9892 292.263 69.472C292.214 69.6651 292.166 69.8582 292.118 70.0513C292.021 70.4375 291.973 70.8238 291.877 71.21C291.828 71.4031 291.78 71.5962 291.78 71.7893C291.732 72.1273 291.635 72.4652 291.587 72.8514C291.587 72.8997 291.587 72.8997 291.587 72.948C291.539 73.1894 291.491 73.4308 291.442 73.7204C291.394 74.1549 291.298 74.5894 291.249 75.0239C291.201 75.2653 291.153 75.4585 291.153 75.6998C291.105 75.9895 291.056 76.2792 291.056 76.5688C291.008 77.0034 290.912 77.4378 290.864 77.9206C290.815 78.2586 290.767 78.5482 290.767 78.8862C290.719 79.3207 290.671 79.7552 290.622 80.238C290.574 80.8656 290.478 81.5415 290.429 82.1691C290.429 82.3139 290.429 82.4588 290.381 82.5553C290.333 83.1829 290.285 83.8106 290.236 84.4382C290.236 84.583 290.236 84.6796 290.236 84.8244C290.188 85.5486 290.14 86.2727 290.092 87.0452C290.092 87.19 290.092 87.2866 290.092 87.4314C290.043 88.1556 290.043 88.928 289.995 89.7005C289.995 89.797 289.995 89.9419 289.995 90.0384C289.995 90.8592 289.947 91.6799 289.947 92.5006L289.995 148.214C289.995 149.131 289.995 150 289.995 150.917C289.995 151.158 289.995 151.448 289.995 151.69C289.995 152.365 290.043 153.041 290.043 153.669C290.043 153.91 290.043 154.152 290.043 154.345C290.092 155.214 290.092 156.035 290.14 156.855C290.14 156.952 290.14 157.097 290.14 157.193C290.188 157.917 290.236 158.593 290.236 159.317C290.236 159.559 290.285 159.752 290.285 159.993C290.333 160.669 290.381 161.345 290.429 162.021C290.429 162.118 290.429 162.262 290.429 162.359C290.478 163.131 290.574 163.856 290.622 164.628C290.622 164.773 290.671 164.966 290.671 165.111C290.719 165.787 290.815 166.463 290.912 167.09C290.912 167.139 290.912 167.235 290.96 167.283C291.056 167.959 291.153 168.635 291.249 169.311C291.249 169.456 291.298 169.601 291.298 169.746C291.394 170.421 291.491 171.049 291.587 171.677C291.587 171.725 291.587 171.822 291.635 171.87C291.732 172.449 291.828 173.077 291.973 173.656C291.973 173.753 292.021 173.849 292.021 173.946C292.166 174.525 292.263 175.104 292.407 175.684C292.455 175.829 292.455 175.925 292.504 176.07C292.648 176.649 292.793 177.229 292.938 177.76C292.938 177.76 292.938 177.76 292.938 177.808C293.083 178.339 293.227 178.918 293.372 179.449C293.42 179.594 293.469 179.691 293.469 179.787C293.613 180.318 293.806 180.85 293.951 181.332C293.951 181.381 293.999 181.429 293.999 181.477C294.144 181.912 294.337 182.394 294.482 182.829C294.53 182.974 294.578 183.07 294.626 183.215C294.819 183.698 295.012 184.132 295.205 184.567C295.446 185.098 295.688 185.581 295.929 186.064C296.025 186.208 296.074 186.353 296.17 186.546C296.17 186.595 296.218 186.643 296.218 186.691C296.363 186.981 296.508 187.222 296.653 187.512C296.749 187.705 296.846 187.85 296.99 188.043C297.135 188.333 297.328 188.574 297.473 188.815C297.569 189.009 297.714 189.153 297.859 189.346C298.052 189.588 298.196 189.829 298.389 190.071C298.63 190.36 298.823 190.65 299.065 190.891C299.113 190.94 299.113 190.94 299.161 190.988C299.402 191.278 299.692 191.567 299.933 191.857C300.126 192.05 300.319 192.243 300.512 192.436C300.657 192.581 300.801 192.726 300.946 192.871C301.091 192.967 301.187 193.112 301.332 193.209C301.525 193.402 301.718 193.547 301.959 193.74C302.056 193.836 302.2 193.933 302.297 193.981C302.538 194.126 302.731 194.319 302.972 194.464C303.069 194.56 303.165 194.609 303.31 194.657C303.599 194.85 303.889 195.043 304.178 195.188C304.227 195.236 304.275 195.236 304.323 195.285C304.661 195.478 304.998 195.671 305.384 195.816C305.481 195.864 305.577 195.912 305.674 195.961C305.963 196.105 306.204 196.202 306.494 196.299C306.59 196.347 306.735 196.395 306.832 196.443C307.121 196.588 307.459 196.685 307.748 196.781C307.845 196.83 307.893 196.83 307.989 196.878C308.375 197.023 308.81 197.119 309.195 197.216C309.34 197.264 309.437 197.264 309.581 197.312C309.871 197.361 310.16 197.457 310.45 197.505C310.643 197.554 310.884 197.554 311.077 197.602C311.366 197.65 311.704 197.699 311.993 197.747C312.331 197.795 312.669 197.795 312.958 197.843C313.007 197.843 313.103 197.843 313.151 197.843C313.537 197.892 313.875 197.892 314.261 197.892C314.357 197.892 314.406 197.892 314.502 197.892C314.888 197.892 315.322 197.843 315.708 197.843C315.853 197.843 315.949 197.843 316.094 197.795C316.191 197.795 316.287 197.795 316.383 197.747C316.528 197.747 316.721 197.699 316.866 197.699C316.962 197.699 317.059 197.65 317.155 197.65C317.3 197.602 317.493 197.602 317.638 197.554C317.734 197.554 317.783 197.505 317.879 197.505C317.975 197.602 318.217 197.554 318.458 197.457Z" fill="#CC743B"/>
<path d="M376.829 152.027V153.09C376.829 153.427 376.829 153.717 376.829 154.055C376.829 154.441 376.829 154.779 376.829 155.117C376.829 155.648 376.829 156.179 376.781 156.71C376.781 157.048 376.781 157.386 376.781 157.724C376.781 158.304 376.733 158.883 376.733 159.414C376.733 159.704 376.733 159.945 376.733 160.235C376.684 161.055 376.684 161.924 376.636 162.745C376.588 163.952 376.491 165.159 376.395 166.366C376.395 166.607 376.347 166.897 376.347 167.138C376.25 168.297 376.154 169.456 376.057 170.566C376.057 170.614 376.057 170.663 376.057 170.711C376.057 170.856 376.009 171.001 376.009 171.146C375.913 172.015 375.816 172.835 375.72 173.704C375.671 173.994 375.671 174.235 375.623 174.525C375.478 175.539 375.382 176.553 375.237 177.518C375.237 177.567 375.237 177.615 375.237 177.663C375.092 178.532 374.996 179.401 374.851 180.27C374.803 180.56 374.755 180.801 374.707 181.091C374.61 181.718 374.465 182.394 374.369 183.022C374.321 183.215 374.321 183.36 374.272 183.505C374.272 183.601 374.224 183.746 374.224 183.843C374.079 184.47 373.983 185.05 373.838 185.629C373.79 185.87 373.742 186.063 373.693 186.305C373.5 187.126 373.356 187.898 373.163 188.719C373.163 188.767 373.163 188.767 373.163 188.815C373.115 188.96 373.066 189.153 373.018 189.298C372.873 189.877 372.729 190.457 372.584 191.036C372.536 191.326 372.439 191.567 372.343 191.857C372.198 192.34 372.101 192.822 371.957 193.305C371.908 193.45 371.908 193.547 371.86 193.691C371.812 193.885 371.764 194.029 371.716 194.222C371.571 194.657 371.474 195.043 371.33 195.478C371.233 195.767 371.137 196.057 371.04 196.347C370.895 196.781 370.799 197.167 370.654 197.602C370.606 197.795 370.509 197.988 370.461 198.133C370.413 198.23 370.365 198.326 370.365 198.423C370.22 198.809 370.075 199.243 369.931 199.63C369.834 199.871 369.738 200.161 369.641 200.402C369.496 200.837 369.303 201.271 369.159 201.706C369.11 201.899 369.014 202.092 368.966 202.285C368.966 202.333 368.918 202.333 368.918 202.381C368.676 203.009 368.435 203.588 368.194 204.168C368.194 204.216 368.146 204.264 368.146 204.264C367.856 204.892 367.615 205.52 367.326 206.099C367.326 206.147 367.277 206.147 367.277 206.195C367.229 206.34 367.133 206.485 367.036 206.63C366.843 207.064 366.602 207.499 366.409 207.933C366.312 208.175 366.168 208.368 366.071 208.561C365.878 208.947 365.685 209.333 365.492 209.671C365.444 209.768 365.396 209.865 365.348 209.961C365.251 210.106 365.203 210.203 365.155 210.347C364.913 210.734 364.72 211.12 364.479 211.506C364.335 211.699 364.238 211.941 364.093 212.134C363.852 212.568 363.611 212.954 363.321 213.389C363.225 213.534 363.177 213.63 363.08 213.775C363.08 213.823 363.032 213.823 363.032 213.872C362.646 214.499 362.26 215.079 361.826 215.706C361.729 215.851 361.633 215.996 361.536 216.141C361.199 216.624 360.861 217.058 360.572 217.493C360.523 217.589 360.427 217.686 360.379 217.782C360.234 217.975 360.089 218.168 359.945 218.361C359.559 218.844 359.221 219.327 358.835 219.762C358.738 219.858 358.69 219.955 358.594 220.051C358.208 220.486 357.822 220.92 357.436 221.355C357.388 221.403 357.339 221.5 357.291 221.548C357.098 221.741 356.905 221.982 356.712 222.224C356.568 222.369 356.471 222.465 356.326 222.61C356.182 222.755 355.989 222.948 355.844 223.093C355.555 223.382 355.265 223.672 355.024 223.913C354.879 224.058 354.734 224.203 354.59 224.348C354.252 224.686 353.914 224.976 353.577 225.314C353.48 225.41 353.384 225.507 353.287 225.555C352.853 225.941 352.419 226.327 351.936 226.714C351.792 226.81 351.695 226.907 351.55 227.003C351.213 227.293 350.875 227.534 350.537 227.824C350.393 227.969 350.2 228.065 350.055 228.21C349.765 228.452 349.428 228.645 349.138 228.886C348.945 229.031 348.752 229.128 348.608 229.272C348.318 229.465 347.981 229.707 347.691 229.9C347.498 229.997 347.353 230.141 347.16 230.238C346.823 230.479 346.437 230.672 346.099 230.866C345.954 230.962 345.81 231.059 345.665 231.107C345.182 231.397 344.652 231.686 344.121 231.928C344.025 231.976 343.928 232.024 343.832 232.072C343.398 232.266 342.963 232.507 342.577 232.7C342.384 232.797 342.191 232.845 342.047 232.941C341.709 233.086 341.323 233.231 340.985 233.424C340.792 233.521 340.599 233.617 340.358 233.666C340.021 233.811 339.683 233.955 339.297 234.1C339.104 234.197 338.911 234.245 338.67 234.342C338.284 234.486 337.898 234.631 337.512 234.728C337.319 234.776 337.174 234.873 336.981 234.921C336.402 235.114 335.872 235.259 335.293 235.452L299.546 245.59C299.835 245.494 300.125 245.446 300.366 245.349C300.655 245.252 300.945 245.156 301.234 245.059C301.331 245.011 301.427 245.011 301.572 244.963C301.62 244.963 301.668 244.963 301.668 244.914C301.716 244.914 301.717 244.866 301.765 244.866C302.151 244.721 302.537 244.625 302.874 244.48C303.067 244.383 303.26 244.335 303.501 244.239C303.694 244.19 303.839 244.094 304.032 244.045C304.225 243.997 304.37 243.901 304.563 243.852C304.708 243.804 304.9 243.708 305.045 243.659C305.093 243.611 305.19 243.611 305.238 243.563C305.528 243.418 305.817 243.321 306.107 243.176C306.155 243.176 306.155 243.128 306.203 243.128C306.348 243.032 306.541 242.983 306.685 242.887C306.782 242.839 306.83 242.79 306.927 242.79C307.216 242.645 307.506 242.501 307.795 242.356C308.229 242.163 308.663 241.921 309.098 241.68C309.242 241.583 309.435 241.487 309.58 241.438C309.725 241.342 309.918 241.245 310.062 241.149C310.111 241.1 310.207 241.1 310.255 241.052C310.448 240.956 310.593 240.859 310.786 240.763C310.979 240.666 311.124 240.521 311.317 240.425C311.413 240.376 311.51 240.328 311.606 240.28C311.703 240.231 311.799 240.183 311.847 240.087C311.944 239.99 312.089 239.942 312.185 239.845C312.378 239.7 312.571 239.604 312.764 239.459C312.909 239.362 313.005 239.314 313.102 239.218C313.102 239.218 313.15 239.218 313.15 239.169C313.246 239.073 313.391 239.025 313.488 238.928C313.729 238.783 313.922 238.59 314.163 238.445L314.211 238.397C314.356 238.3 314.501 238.156 314.645 238.059C314.694 238.011 314.742 238.011 314.742 237.962C315.031 237.769 315.273 237.528 315.562 237.335C315.61 237.287 315.658 237.287 315.707 237.238C315.803 237.142 315.9 237.045 316.044 236.997C316.093 236.949 316.141 236.9 316.189 236.852C316.43 236.659 316.672 236.418 316.913 236.224C316.961 236.224 316.961 236.176 317.009 236.176C317.057 236.128 317.057 236.128 317.106 236.08C317.202 235.983 317.299 235.935 317.395 235.838C317.492 235.742 317.588 235.645 317.685 235.549C318.022 235.259 318.312 234.969 318.601 234.68C318.649 234.631 318.649 234.631 318.698 234.583C318.746 234.535 318.746 234.535 318.794 234.535C318.939 234.39 319.035 234.293 319.18 234.148C319.325 234.004 319.47 233.859 319.614 233.762C319.759 233.617 319.904 233.473 320.048 233.328C320.193 233.183 320.338 233.038 320.483 232.845C320.82 232.507 321.11 232.169 321.447 231.831C321.496 231.783 321.544 231.686 321.592 231.638C321.689 231.541 321.785 231.397 321.882 231.3C321.93 231.252 321.978 231.203 322.026 231.155C322.075 231.107 322.123 231.059 322.171 231.01C322.316 230.866 322.461 230.672 322.605 230.528C322.846 230.238 323.088 229.948 323.329 229.659C323.329 229.61 323.377 229.61 323.377 229.562C323.522 229.417 323.618 229.272 323.715 229.128C323.86 228.934 324.004 228.79 324.149 228.596C324.39 228.307 324.583 228.017 324.776 227.727C325.114 227.293 325.452 226.81 325.789 226.327C325.886 226.231 325.934 226.086 326.03 225.989C326.513 225.314 326.995 224.589 327.429 223.865C327.478 223.769 327.526 223.72 327.574 223.624C327.815 223.238 328.057 222.851 328.298 222.465C328.394 222.32 328.443 222.224 328.539 222.079C328.587 221.982 328.684 221.886 328.732 221.741C328.973 221.355 329.166 220.969 329.407 220.582C329.552 220.341 329.649 220.148 329.793 219.906C329.986 219.52 330.179 219.182 330.372 218.796C330.469 218.603 330.565 218.41 330.662 218.217C330.71 218.168 330.71 218.12 330.758 218.072C330.951 217.637 331.144 217.251 331.385 216.817C331.482 216.672 331.53 216.479 331.627 216.334V216.286C331.819 215.851 332.012 215.417 332.205 214.982C332.302 214.789 332.35 214.596 332.447 214.451C332.447 214.403 332.495 214.354 332.495 214.354C332.591 214.113 332.688 213.872 332.784 213.63C332.929 213.341 333.026 213.051 333.17 212.713C333.17 212.665 333.218 212.616 333.218 212.568C333.267 212.472 333.267 212.423 333.315 212.327C333.315 212.278 333.315 212.278 333.363 212.23C333.46 211.941 333.604 211.651 333.701 211.361C333.797 211.072 333.894 210.782 334.039 210.54C334.135 210.299 334.183 210.106 334.28 209.865C334.425 209.478 334.569 209.044 334.714 208.658C334.81 208.368 334.907 208.078 335.003 207.837C335.148 207.451 335.293 207.016 335.389 206.582C335.486 206.292 335.582 206.002 335.679 205.713C335.824 205.278 335.92 204.892 336.065 204.457C336.161 204.168 336.258 203.878 336.306 203.54C336.451 203.106 336.547 202.623 336.692 202.14C336.788 201.85 336.837 201.609 336.933 201.319C337.078 200.74 337.223 200.161 337.367 199.581C337.416 199.388 337.464 199.195 337.512 199.002C337.609 198.616 337.705 198.23 337.801 197.795C337.85 197.505 337.946 197.216 337.994 196.926C338.043 196.685 338.091 196.492 338.139 196.25C338.187 196.154 338.187 196.009 338.187 195.912C338.284 195.333 338.429 194.802 338.525 194.222C338.573 194.029 338.573 193.885 338.622 193.691C338.67 193.547 338.67 193.402 338.718 193.257C338.766 192.919 338.815 192.629 338.911 192.291C338.959 191.953 339.007 191.664 339.056 191.326C339.104 191.036 339.152 190.795 339.2 190.505C339.249 190.071 339.345 189.636 339.393 189.202C339.442 188.767 339.538 188.333 339.586 187.898C339.586 187.898 339.586 187.898 339.586 187.85C339.586 187.801 339.586 187.753 339.586 187.753C339.586 187.56 339.635 187.367 339.683 187.174C339.731 186.691 339.828 186.208 339.876 185.726C339.972 185.098 340.021 184.519 340.117 183.891C340.165 183.456 340.214 183.07 340.262 182.636C340.31 182.201 340.358 181.767 340.407 181.381C340.503 180.608 340.551 179.836 340.599 179.063C340.648 178.532 340.696 177.953 340.744 177.422C340.744 177.373 340.744 177.325 340.744 177.277C340.744 177.035 340.792 176.794 340.792 176.553C340.841 176.022 340.889 175.491 340.889 174.911C340.889 174.863 340.889 174.766 340.889 174.718C340.937 174.139 340.937 173.511 340.985 172.884C340.985 172.449 341.034 172.063 341.034 171.628C341.034 171.146 341.082 170.614 341.082 170.132C341.082 169.939 341.082 169.745 341.082 169.552C341.082 169.07 341.13 168.587 341.13 168.152C341.13 168.104 341.13 168.056 341.13 168.007C341.13 167.621 341.13 167.235 341.13 166.897C341.13 166.366 341.13 165.835 341.178 165.304C341.178 164.918 341.178 164.58 341.178 164.242C341.178 163.662 341.178 163.035 341.178 162.455V162.214L341.13 122.53C341.13 121.805 341.13 121.033 341.13 120.309C341.13 119.729 341.13 119.15 341.082 118.571C341.082 118.474 341.082 118.378 341.082 118.281C341.082 118.04 341.082 117.847 341.082 117.605C341.082 117.026 341.034 116.398 341.034 115.819C341.034 115.674 341.034 115.577 341.034 115.481C341.034 114.853 340.985 114.226 340.985 113.646C340.985 113.55 340.985 113.502 340.985 113.405C340.985 113.164 340.985 112.874 340.937 112.633C340.937 112.584 340.937 112.536 340.937 112.488C340.937 112.295 340.937 112.101 340.889 111.86C340.889 111.474 340.841 111.088 340.841 110.701C340.841 110.46 340.792 110.17 340.792 109.929C340.792 109.543 340.744 109.205 340.744 108.819C340.696 107.998 340.648 107.177 340.551 106.356C340.503 105.68 340.455 105.005 340.358 104.377C340.358 104.232 340.31 104.087 340.31 103.942C340.262 103.411 340.214 102.88 340.165 102.398C340.117 102.108 340.117 101.867 340.069 101.577C340.021 101.335 340.021 101.046 339.972 100.804V100.756C339.924 100.418 339.876 100.032 339.828 99.694C339.828 99.5492 339.779 99.4043 339.779 99.2595C339.683 98.487 339.586 97.7146 339.49 96.9421C339.442 96.7008 339.442 96.4594 339.393 96.2662C339.345 95.88 339.297 95.4938 339.2 95.1076C339.2 95.0593 339.2 95.011 339.2 95.011C339.2 94.9145 339.152 94.7696 339.152 94.6731C339.104 94.3351 339.056 93.9489 338.959 93.611C338.911 93.1765 338.815 92.7902 338.766 92.3557C338.718 92.1626 338.718 92.0178 338.67 91.8247C338.573 91.2453 338.477 90.666 338.332 90.0867C338.284 89.7487 338.187 89.4108 338.139 89.0245C338.043 88.6383 337.994 88.2038 337.898 87.8176C337.85 87.4796 337.753 87.1417 337.657 86.7555C337.657 86.7072 337.657 86.6589 337.657 86.6589C337.56 86.321 337.512 85.9347 337.416 85.5968C337.367 85.3071 337.271 85.0175 337.223 84.7278C337.174 84.4381 337.078 84.1485 337.03 83.8588C336.981 83.7622 336.981 83.6657 336.933 83.5208C336.933 83.4243 336.885 83.3277 336.837 83.1829C336.788 82.9415 336.74 82.7001 336.644 82.4587C336.644 82.4104 336.644 82.4104 336.644 82.3622C336.547 82.0242 336.499 81.7346 336.402 81.3966C336.306 80.9621 336.161 80.4793 336.017 80.0448C335.968 79.8517 335.92 79.6586 335.872 79.4172C335.824 79.2724 335.775 79.1275 335.727 78.9827C335.679 78.8379 335.631 78.6448 335.582 78.4999C335.486 78.2585 335.438 77.9689 335.341 77.7275C335.341 77.6792 335.293 77.5826 335.293 77.5344C335.148 77.0999 335.052 76.6653 334.907 76.2308C334.859 75.9895 334.762 75.7963 334.714 75.555C334.714 75.5067 334.666 75.4101 334.666 75.3618C334.521 74.9756 334.425 74.5894 334.28 74.2032C334.135 73.7687 333.99 73.3342 333.846 72.8514C333.797 72.7548 333.797 72.6583 333.749 72.61C333.604 72.2238 333.46 71.8375 333.363 71.4513C333.315 71.3548 333.315 71.3065 333.267 71.2099C333.267 71.1617 333.218 71.1134 333.218 71.0651C333.074 70.6306 332.929 70.2444 332.736 69.8099C332.64 69.6168 332.591 69.3754 332.495 69.1823C332.35 68.796 332.157 68.3615 332.012 67.9753C331.964 67.8305 331.916 67.6856 331.819 67.5408C331.675 67.2028 331.53 66.8649 331.385 66.527C331.337 66.4304 331.289 66.3821 331.289 66.2856C331.241 66.2373 331.241 66.189 331.192 66.1407C331.048 65.7545 330.855 65.3683 330.71 64.9821C330.565 64.5958 330.372 64.2096 330.179 63.8717C330.083 63.6786 330.035 63.4854 329.938 63.3406C329.745 62.9544 329.552 62.5199 329.359 62.1336C329.359 62.0854 329.311 62.0371 329.311 61.9888C329.118 61.6026 328.925 61.2164 328.732 60.8301C328.636 60.6853 328.587 60.4922 328.491 60.3474C328.105 59.5749 327.719 58.8507 327.333 58.1266C327.285 57.9817 327.188 57.8852 327.14 57.7403C326.947 57.4507 326.802 57.1127 326.609 56.8231C326.561 56.6782 326.465 56.5817 326.416 56.4851L325.789 55.423C325.693 55.2299 325.596 55.085 325.452 54.8919C325.21 54.5057 324.969 54.1195 324.728 53.7333C324.487 53.347 324.245 52.9608 324.004 52.5746C323.763 52.1884 323.522 51.8504 323.281 51.5125C323.039 51.1745 322.798 50.7883 322.557 50.4504C322.412 50.2572 322.316 50.1124 322.171 49.9193C321.93 49.5814 321.689 49.2434 321.399 48.9055C321.158 48.5675 320.917 48.2296 320.627 47.8916C320.241 47.4088 319.904 46.9743 319.518 46.5398C319.277 46.2502 319.035 45.9605 318.794 45.6708C318.649 45.526 318.553 45.3812 318.408 45.2363C318.263 45.0432 318.119 44.8984 317.974 44.7535C317.733 44.4639 317.492 44.2225 317.25 43.9328C317.106 43.7397 316.961 43.5949 316.768 43.4018C316.575 43.2086 316.382 42.9673 316.189 42.7741C315.851 42.3879 315.465 42.05 315.128 41.6637C314.983 41.5189 314.838 41.3741 314.694 41.2292C314.259 40.7947 313.873 40.4085 313.439 40.0223L313.391 39.974C313.343 39.8775 313.246 39.8292 313.198 39.7809C313.102 39.6843 313.005 39.6361 312.909 39.5395C312.571 39.2016 312.233 38.9119 311.896 38.6222C311.847 38.5739 311.799 38.5257 311.751 38.5257C311.703 38.4774 311.654 38.4291 311.606 38.4291C311.461 38.3326 311.365 38.236 311.22 38.1394C310.931 37.8981 310.593 37.6084 310.304 37.367C310.062 37.1739 309.869 36.9808 309.628 36.8359C309.387 36.6428 309.146 36.4497 308.905 36.2566C308.808 36.16 308.663 36.0635 308.567 35.9669C308.422 35.8704 308.326 35.7738 308.229 35.7255C307.988 35.5324 307.747 35.3393 307.506 35.1945C307.264 35.0014 307.023 34.8083 306.734 34.6634C306.589 34.5669 306.444 34.422 306.251 34.3255C306.155 34.2289 306.058 34.1806 305.914 34.0841C305.721 33.9393 305.479 33.7944 305.286 33.6496C305.19 33.553 305.045 33.5047 304.949 33.4082C304.852 33.3116 304.708 33.2634 304.611 33.2151C304.322 33.022 304.032 32.8289 303.743 32.684C303.598 32.5875 303.453 32.4909 303.26 32.3944C303.164 32.3461 303.067 32.2495 302.971 32.2012C302.73 32.0564 302.44 31.8633 302.199 31.7185C301.668 31.3805 301.138 31.0908 300.607 30.8012C300.51 30.7529 300.366 30.6563 300.269 30.6081C300.221 30.5598 300.125 30.5598 300.076 30.5115C300.028 30.4632 299.932 30.4632 299.883 30.415C299.594 30.2701 299.353 30.1253 299.063 29.9804C299.015 29.9804 298.967 29.9322 298.918 29.9322C298.87 29.8839 298.774 29.8356 298.726 29.8356C298.677 29.8356 298.677 29.8356 298.629 29.7873C298.484 29.6908 298.34 29.6425 298.147 29.5459C297.954 29.4494 297.809 29.4011 297.664 29.3046C297.278 29.1114 296.892 28.9666 296.555 28.7735C296.313 28.6769 296.12 28.5804 295.927 28.4838C295.879 28.4838 295.831 28.4356 295.783 28.4356C295.735 28.3873 295.686 28.3873 295.638 28.339C295.397 28.2424 295.156 28.1459 294.914 28.0493C294.625 27.9045 294.336 27.8079 293.998 27.6631C293.757 27.5665 293.515 27.47 293.274 27.3734C292.985 27.2769 292.695 27.132 292.358 27.0355C292.309 27.0355 292.309 26.9872 292.261 26.9872C292.068 26.9389 291.875 26.8424 291.634 26.7941C291.586 26.7941 291.537 26.7458 291.537 26.7458C291.248 26.6493 290.959 26.5527 290.669 26.4562C290.38 26.3596 290.138 26.263 289.849 26.1665C289.56 26.0699 289.27 25.9734 288.981 25.8768C288.643 25.7803 288.353 25.6837 288.016 25.5871C287.775 25.5389 287.533 25.4423 287.244 25.3458C287.196 25.3458 287.147 25.3458 287.099 25.2975C286.81 25.2009 286.472 25.1526 286.183 25.0561C286.038 25.0078 285.893 24.9595 285.748 24.9595C285.7 24.9595 285.652 24.9113 285.604 24.9113C285.507 24.863 285.411 24.863 285.362 24.863C285.121 24.8147 284.88 24.7664 284.639 24.7181C284.494 24.6699 284.349 24.6216 284.156 24.6216C283.915 24.5733 283.674 24.525 283.385 24.4285C283.143 24.3802 282.95 24.3319 282.709 24.2836C282.468 24.2354 282.275 24.1871 282.034 24.1388C281.841 24.0905 281.648 24.0422 281.407 23.994C281.117 23.9457 280.828 23.8974 280.538 23.8491C280.394 23.8009 280.201 23.8009 280.056 23.7526C279.815 23.7043 279.525 23.656 279.284 23.6077C279.236 23.6077 279.188 23.6077 279.139 23.6077C278.995 23.5595 278.85 23.5595 278.705 23.5595C278.416 23.5112 278.174 23.4629 277.885 23.4146C277.596 23.3664 277.354 23.3181 277.065 23.3181C276.534 23.2698 276.052 23.1732 275.521 23.125C274.894 23.0767 274.315 22.9801 273.736 22.9319C273.543 22.9319 273.35 22.8836 273.157 22.8836C272.771 22.8353 272.337 22.8353 271.951 22.787C271.758 22.787 271.565 22.7387 271.421 22.7387C271.228 22.7387 270.986 22.6905 270.793 22.6905C270.649 22.6905 270.504 22.6905 270.359 22.6905C270.07 22.6905 269.78 22.6422 269.491 22.6422C269.394 22.6422 269.298 22.6422 269.201 22.6422H268.381H268.333C267.899 22.6422 267.465 22.6422 267.031 22.6422H266.548C266.403 22.6422 266.307 22.6422 266.162 22.6422C266.114 22.6422 266.066 22.6422 266.017 22.6422C265.825 22.6422 265.68 22.6422 265.487 22.6422C265.39 22.6422 265.342 22.6422 265.294 22.6422C265.004 22.6422 264.667 22.6422 264.377 22.6905C264.233 22.6905 264.136 22.6905 263.991 22.6905C263.798 22.6905 263.654 22.6905 263.461 22.7387C263.219 22.7387 262.978 22.7387 262.785 22.787C262.641 22.787 262.544 22.787 262.399 22.8353C262.062 22.8836 261.676 22.8836 261.338 22.9319C261.193 22.9319 261.097 22.9801 260.952 22.9801C260.856 22.9801 260.711 22.9801 260.614 23.0284C260.47 23.0284 260.373 23.0767 260.228 23.0767C260.18 23.0767 260.18 23.0767 260.132 23.0767C259.891 23.125 259.698 23.125 259.505 23.1732C259.505 23.1732 259.457 23.1732 259.408 23.1732C259.119 23.2215 258.829 23.2698 258.54 23.3181C258.299 23.3664 258.009 23.4146 257.768 23.4629C257.479 23.5112 257.189 23.5595 256.9 23.6077C256.755 23.656 256.562 23.656 256.417 23.7043H256.369C256.224 23.7526 256.08 23.7526 255.935 23.8009C255.887 23.8009 255.887 23.8009 255.838 23.8009C255.694 23.8491 255.597 23.8491 255.501 23.8974C255.356 23.9457 255.211 23.9457 255.067 23.994C254.777 24.0422 254.439 24.1388 254.15 24.1871C254.102 24.1871 254.005 24.2354 253.957 24.2354C253.523 24.3319 253.089 24.4285 252.654 24.5733H252.606C252.413 24.6216 252.22 24.6699 252.027 24.7181L287.775 14.5797C288.209 14.4832 288.595 14.3384 289.029 14.2418C289.174 14.1935 289.318 14.1935 289.463 14.1452C289.753 14.0487 290.042 14.0004 290.331 13.9521C290.476 13.9038 290.669 13.8556 290.814 13.8556C291.103 13.8073 291.344 13.759 291.634 13.7107C291.827 13.6625 291.972 13.6625 292.165 13.6142C292.309 13.6142 292.454 13.5659 292.599 13.5176C292.647 13.5176 292.744 13.5176 292.792 13.4693C293.515 13.3245 294.239 13.228 294.963 13.1314C295.107 13.1314 295.204 13.0831 295.349 13.0831C296.072 12.9866 296.844 12.89 297.616 12.8417H297.664C297.712 12.8417 297.761 12.8417 297.857 12.8417C298.533 12.7935 299.208 12.7452 299.883 12.6969C300.028 12.6969 300.125 12.6969 300.269 12.6486C300.993 12.6003 301.668 12.6003 302.392 12.6003C302.44 12.6003 302.537 12.6003 302.585 12.6003H302.826C303.55 12.6003 304.273 12.6003 304.997 12.6003C305.721 12.6003 306.492 12.6486 307.216 12.6969C307.313 12.6969 307.409 12.6969 307.457 12.6969C307.554 12.6969 307.65 12.6969 307.747 12.6969C308.133 12.6969 308.567 12.7452 308.953 12.7935C309.146 12.7935 309.339 12.8417 309.532 12.8417C310.111 12.89 310.738 12.9383 311.317 13.0348C311.751 13.0831 312.137 13.1314 312.571 13.1797C312.667 13.1797 312.764 13.228 312.86 13.228C313.391 13.2762 313.97 13.3728 314.501 13.4693C314.694 13.5176 314.887 13.5176 315.031 13.5659C315.755 13.6625 316.43 13.8073 317.154 13.9521C317.202 13.9521 317.202 13.9521 317.25 13.9521C317.443 14.0004 317.588 14.0487 317.781 14.0487C318.215 14.1452 318.698 14.2418 319.132 14.3384C319.373 14.3866 319.614 14.4349 319.904 14.4832C320.29 14.5797 320.676 14.6763 321.11 14.7729C321.206 14.7729 321.303 14.8211 321.399 14.8211C321.592 14.8694 321.785 14.9177 321.978 14.966C322.316 15.0625 322.605 15.1108 322.943 15.2074C323.232 15.3039 323.522 15.3522 323.811 15.4487C324.149 15.5453 324.438 15.6419 324.776 15.7384C324.873 15.7867 325.017 15.7867 325.114 15.835C325.307 15.8833 325.452 15.9315 325.644 16.0281C325.934 16.1246 326.223 16.2212 326.465 16.3178C326.754 16.4143 327.044 16.5109 327.333 16.6074C327.622 16.704 327.864 16.8005 328.153 16.8971C328.25 16.9454 328.346 16.9936 328.491 16.9936C328.684 17.0419 328.877 17.1385 329.07 17.235C329.311 17.3316 329.552 17.4281 329.793 17.5247C330.083 17.6695 330.372 17.7661 330.71 17.9109C330.951 18.0075 331.192 18.104 331.434 18.2006C331.482 18.2489 331.578 18.2489 331.627 18.2972C331.868 18.3937 332.109 18.4903 332.35 18.6351C332.543 18.7317 332.784 18.8282 332.977 18.9248C333.315 19.0696 333.653 19.2627 333.99 19.4076C334.183 19.5041 334.376 19.6007 334.521 19.6972C334.569 19.6972 334.569 19.7455 334.618 19.7455C335.052 19.9386 335.438 20.18 335.872 20.3731C335.92 20.4214 336.017 20.4214 336.065 20.4697C336.547 20.7111 337.03 21.0007 337.512 21.2421C337.512 21.2421 337.56 21.2421 337.56 21.2904C337.705 21.387 337.898 21.4835 338.043 21.5801C338.38 21.7732 338.718 21.9663 339.008 22.1594C339.2 22.256 339.393 22.4008 339.586 22.4973C339.828 22.6422 340.069 22.787 340.31 22.9319C340.358 22.9801 340.407 23.0284 340.455 23.0284C340.696 23.1732 340.889 23.3181 341.13 23.4629C341.371 23.656 341.661 23.8009 341.902 23.994C342.095 24.1388 342.336 24.2836 342.529 24.4285C342.722 24.5733 342.915 24.6699 343.06 24.8147C343.156 24.863 343.205 24.9113 343.253 24.9595C343.494 25.1526 343.735 25.2975 343.976 25.4906C344.218 25.6837 344.459 25.8285 344.7 26.0216C344.941 26.2148 345.182 26.4079 345.424 26.601C345.568 26.7458 345.761 26.8424 345.906 26.9872C345.954 27.0355 346.003 27.0838 346.099 27.132C346.437 27.3734 346.726 27.6631 347.016 27.9045C347.209 28.0493 347.353 28.1942 347.546 28.339C347.932 28.6769 348.318 29.0149 348.704 29.3528C348.801 29.4494 348.897 29.4977 348.945 29.5942C349.476 30.077 349.958 30.5598 350.441 31.0426C350.586 31.1874 350.73 31.3322 350.875 31.4771C351.261 31.8633 351.599 32.2012 351.936 32.5875C352.033 32.684 352.129 32.7806 352.178 32.8771C352.274 32.9737 352.371 33.1185 352.515 33.2151C352.66 33.4082 352.805 33.553 352.998 33.7461C353.239 34.0358 353.48 34.2772 353.721 34.5669C353.866 34.76 354.011 34.9048 354.155 35.0496C354.397 35.3393 354.686 35.6773 354.927 35.9669C355.072 36.1118 355.169 36.2566 355.265 36.4014C355.362 36.5463 355.458 36.6428 355.554 36.7877C355.796 37.1256 356.085 37.4153 356.326 37.7532C356.857 38.4291 357.339 39.105 357.822 39.7809C357.967 39.974 358.063 40.1188 358.208 40.312C358.69 41.0361 359.173 41.712 359.655 42.4362C360.137 43.2086 360.62 43.9811 361.102 44.7535C361.199 44.9467 361.295 45.0915 361.44 45.2846C361.922 46.0571 362.357 46.8295 362.791 47.6502C362.887 47.7951 362.936 47.8916 362.984 48.0365C363.37 48.7606 363.756 49.5331 364.142 50.2572C364.238 50.4021 364.286 50.5469 364.383 50.74C364.817 51.5608 365.203 52.3815 365.589 53.2505C365.685 53.4436 365.734 53.6367 365.83 53.7815C366.216 54.6023 366.554 55.423 366.891 56.2437C366.94 56.3403 366.988 56.4368 366.988 56.4851C367.374 57.3541 367.711 58.2714 368.097 59.1887C368.194 59.3818 368.242 59.6232 368.339 59.8163C368.676 60.7336 369.014 61.6509 369.352 62.5682C369.4 62.6647 369.4 62.7613 369.448 62.8578C369.738 63.7268 370.027 64.6441 370.317 65.5131C370.365 65.6579 370.413 65.7545 370.461 65.8993C370.509 65.9959 370.509 66.0925 370.558 66.2373C370.702 66.7201 370.847 67.2028 370.992 67.6856C371.088 67.9753 371.137 68.2167 371.233 68.5064C371.426 69.0857 371.571 69.7133 371.716 70.2926C371.764 70.4375 371.812 70.6306 371.86 70.7754C372.053 71.5479 372.246 72.3203 372.439 73.0928C372.487 73.2859 372.536 73.5273 372.584 73.7204C372.729 74.2997 372.873 74.8791 372.97 75.4584C372.97 75.555 373.018 75.6032 373.018 75.6998C373.066 75.9895 373.163 76.3274 373.211 76.6171C373.259 76.955 373.356 77.293 373.452 77.6792C373.549 78.0654 373.597 78.4999 373.693 78.8861C373.742 79.2241 373.838 79.6103 373.886 79.9483C373.983 80.3345 374.031 80.769 374.128 81.1552C374.176 81.4932 374.272 81.8794 374.321 82.2173C374.417 82.6518 374.465 83.0381 374.514 83.4726C374.562 83.8105 374.658 84.1967 374.707 84.5347C374.707 84.583 374.707 84.6312 374.755 84.6795C374.803 85.1623 374.899 85.6451 374.948 86.1278C374.996 86.3692 374.996 86.5624 375.044 86.8037C375.141 87.5762 375.237 88.3486 375.334 89.1211C375.334 89.2659 375.382 89.3625 375.382 89.5073C375.478 90.1832 375.527 90.8591 375.623 91.4867C375.671 91.7764 375.671 92.0661 375.72 92.3074C375.768 92.742 375.816 93.2247 375.864 93.6592C375.864 93.7075 375.864 93.8041 375.864 93.8523C375.913 94.1903 375.913 94.5282 375.961 94.8179C376.009 95.3007 376.057 95.7835 376.106 96.2662C376.154 96.6042 376.154 96.9904 376.202 97.3284C376.25 97.8111 376.25 98.2939 376.299 98.7284C376.347 99.1147 376.347 99.4526 376.395 99.8388C376.443 100.322 376.443 100.756 376.491 101.239C376.491 101.625 376.54 101.963 376.54 102.349C376.54 102.591 376.588 102.88 376.588 103.122C376.588 103.218 376.588 103.363 376.588 103.508C376.636 104.811 376.684 106.163 376.733 107.467C376.733 107.708 376.733 107.901 376.733 108.143C376.781 109.543 376.781 110.991 376.781 112.391L376.829 146.186V152.027Z" fill="#A15B2E"/>
<path d="M341.083 122.481C341.083 121.757 341.083 120.985 341.083 120.261C341.083 119.681 341.083 119.102 341.035 118.523C341.035 118.185 341.035 117.895 341.035 117.557C341.035 116.978 340.987 116.35 340.987 115.771C340.987 115.626 340.987 115.529 340.987 115.433C340.987 114.805 340.939 114.178 340.939 113.598C340.939 113.502 340.939 113.453 340.939 113.357C340.939 112.826 340.89 112.343 340.842 111.86C340.842 111.474 340.794 111.088 340.794 110.702C340.794 110.46 340.746 110.171 340.746 109.929C340.746 109.543 340.698 109.205 340.698 108.819C340.649 107.998 340.601 107.177 340.505 106.357C340.456 105.681 340.408 105.005 340.312 104.377C340.263 103.701 340.167 103.025 340.119 102.349C340.07 102.06 340.07 101.818 340.022 101.529C339.974 101.287 339.974 100.998 339.926 100.756C339.877 100.225 339.829 99.6942 339.733 99.2114C339.636 98.4389 339.54 97.6665 339.443 96.894C339.395 96.6526 339.395 96.4113 339.347 96.2181C339.299 95.7836 339.202 95.3491 339.154 94.9629C339.154 94.8664 339.106 94.7215 339.106 94.625C339.057 94.287 339.009 93.9008 338.913 93.5629C338.864 93.1283 338.768 92.7421 338.72 92.3076C338.671 92.1145 338.671 91.9697 338.623 91.7766C338.527 91.1972 338.43 90.6179 338.285 90.0385C338.237 89.7006 338.141 89.3627 338.092 88.9764C337.996 88.5902 337.948 88.1557 337.851 87.7695C337.803 87.4315 337.707 87.0936 337.61 86.7074C337.514 86.3211 337.465 85.9349 337.369 85.5487C337.321 85.259 337.224 84.9693 337.176 84.6797C337.079 84.2934 336.983 83.8589 336.886 83.4727C336.886 83.3762 336.838 83.2796 336.79 83.1348C336.742 82.8934 336.693 82.652 336.597 82.4106C336.5 82.0727 336.404 81.6864 336.308 81.3485C336.211 80.914 336.066 80.4312 335.922 79.9967C335.825 79.6588 335.729 79.3208 335.632 78.9829C335.584 78.838 335.536 78.6449 335.487 78.5001C335.391 78.1621 335.294 77.8725 335.198 77.5345C335.053 77.1 334.957 76.6655 334.812 76.231C334.716 75.9413 334.619 75.6517 334.523 75.362C334.378 74.9758 334.281 74.5896 334.137 74.2033C333.992 73.7688 333.847 73.3343 333.702 72.8515C333.654 72.755 333.654 72.6584 333.606 72.6102C333.461 72.2239 333.317 71.8377 333.22 71.4515C333.172 71.3066 333.124 71.2101 333.075 71.0653C332.931 70.6308 332.786 70.2445 332.593 69.81C332.496 69.6169 332.448 69.3755 332.352 69.1824C332.207 68.7962 332.014 68.3617 331.869 67.9755C331.821 67.8306 331.773 67.6858 331.676 67.541C331.532 67.203 331.387 66.8651 331.242 66.5271C331.194 66.4306 331.146 66.3823 331.146 66.2857C331.097 66.2374 331.097 66.1892 331.049 66.1409C330.663 65.1753 330.229 64.258 329.795 63.2925C329.602 62.9063 329.409 62.4718 329.216 62.0855C329.216 62.0373 329.168 61.989 329.168 61.9407C328.975 61.5545 328.782 61.1682 328.589 60.782C328.492 60.6372 328.444 60.4441 328.348 60.2992C327.962 59.5268 327.576 58.8026 327.19 58.0784C327.142 57.9336 327.045 57.8371 326.997 57.6922C326.804 57.4026 326.659 57.0646 326.466 56.7749C326.418 56.6301 326.321 56.5336 326.273 56.437L325.646 55.3749C325.308 54.7955 324.971 54.2162 324.585 53.6851C324.344 53.2989 324.102 52.9127 323.861 52.5265C323.62 52.1402 323.379 51.8023 323.137 51.4643C322.896 51.1264 322.655 50.7402 322.414 50.4022C322.269 50.2091 322.173 50.0643 322.028 49.8712C321.787 49.5332 321.545 49.1953 321.256 48.8573C321.015 48.5194 320.774 48.1814 320.484 47.8435C320.098 47.3607 319.761 46.9262 319.375 46.4917C319.133 46.202 318.892 45.9124 318.651 45.6227C318.506 45.4779 318.41 45.333 318.265 45.1882C318.12 44.9951 317.976 44.8503 317.831 44.7054C317.59 44.4157 317.348 44.1744 317.107 43.8847C316.962 43.6916 316.818 43.5467 316.625 43.3536C316.432 43.1605 316.239 42.9191 316.046 42.726C315.708 42.3398 315.322 42.0018 314.985 41.6156C314.84 41.4708 314.695 41.326 314.55 41.1811C314.116 40.7466 313.73 40.3604 313.296 39.9742C313.103 39.8293 312.91 39.6362 312.765 39.4914C312.428 39.1534 312.09 38.8638 311.752 38.5741C311.704 38.5258 311.656 38.4775 311.608 38.4775C311.125 38.043 310.643 37.6568 310.16 37.2706C309.919 37.0775 309.726 36.8844 309.485 36.7395C309.244 36.5464 309.003 36.3533 308.761 36.1602C308.665 36.0636 308.52 35.9671 308.424 35.8705C308.086 35.5809 307.7 35.3395 307.362 35.0498C307.121 34.8567 306.88 34.6636 306.59 34.5187C306.446 34.4222 306.301 34.2774 306.108 34.1808C306.012 34.0842 305.915 34.036 305.77 33.9394C305.577 33.7946 305.336 33.6497 305.143 33.5049C305.047 33.4083 304.902 33.3601 304.806 33.2635C304.709 33.167 304.564 33.1187 304.468 33.0704C304.178 32.8773 303.889 32.6842 303.599 32.5393C303.455 32.4428 303.31 32.3462 303.117 32.2497C302.007 31.5738 300.85 30.8979 299.692 30.3185C299.402 30.1737 299.161 30.0289 298.872 29.884C298.727 29.8358 298.582 29.7392 298.438 29.6909C298.293 29.5944 298.148 29.5461 297.955 29.4495C297.762 29.353 297.618 29.3047 297.473 29.2082C297.087 29.015 296.701 28.8702 296.363 28.6771C296.122 28.5805 295.833 28.4357 295.591 28.3391C295.302 28.1943 295.012 28.0978 294.723 27.9529C294.434 27.8081 294.144 27.7115 293.806 27.5667C293.565 27.4701 293.324 27.3736 293.083 27.277C292.793 27.1805 292.504 27.0356 292.166 26.9391C292.118 26.9391 292.118 26.8908 292.07 26.8908C291.877 26.8425 291.684 26.746 291.443 26.6977C291.394 26.6977 291.346 26.6494 291.346 26.6494C291.057 26.5529 290.767 26.4563 290.478 26.3597C290.188 26.2632 289.947 26.1666 289.658 26.0701C289.368 25.9735 289.079 25.877 288.789 25.7804C288.452 25.6839 288.162 25.5873 287.824 25.4907C287.583 25.4425 287.342 25.3459 287.053 25.2493C287.004 25.2493 286.956 25.2493 286.908 25.2011C286.618 25.1045 286.281 25.0562 285.991 24.9597C285.846 24.9114 285.702 24.8631 285.557 24.8631C285.171 24.7666 284.785 24.67 284.447 24.5735C284.303 24.5252 284.158 24.4769 283.965 24.4769C283.724 24.4286 283.483 24.3803 283.193 24.2838C282.952 24.2355 282.759 24.1872 282.518 24.139C282.277 24.0907 282.084 24.0424 281.842 23.9941C281.649 23.9458 281.456 23.8976 281.215 23.8493C280.926 23.801 280.636 23.7527 280.347 23.7044C280.202 23.6562 280.009 23.6562 279.864 23.6079C279.623 23.5596 279.334 23.5113 279.093 23.4631C279.044 23.4631 278.996 23.4631 278.948 23.4631C278.272 23.3665 277.597 23.2699 276.922 23.1734C276.391 23.1251 275.909 23.0286 275.378 22.9803C274.751 22.932 274.172 22.8354 273.593 22.7872C273.4 22.7872 273.207 22.7389 273.014 22.7389C272.628 22.6906 272.194 22.6906 271.808 22.6423C271.615 22.6423 271.422 22.5941 271.277 22.5941C271.084 22.5941 270.843 22.5458 270.65 22.5458C270.506 22.5458 270.361 22.5458 270.216 22.5458C269.927 22.5458 269.637 22.4975 269.348 22.4975C268.962 22.4975 268.576 22.4492 268.19 22.4492C267.756 22.4492 267.322 22.4492 266.887 22.4492H266.839C266.55 22.4492 266.26 22.4492 265.923 22.4492C265.73 22.4492 265.585 22.4492 265.392 22.4492C265.006 22.4492 264.62 22.4492 264.282 22.4975C264.138 22.4975 264.041 22.4975 263.896 22.4975C263.703 22.4975 263.559 22.4975 263.366 22.5458C263.125 22.5458 262.883 22.5458 262.69 22.5941C262.546 22.5941 262.449 22.5941 262.304 22.6423C261.967 22.6906 261.581 22.6906 261.243 22.7389C261.098 22.7389 261.002 22.7872 260.857 22.7872C260.568 22.8354 260.326 22.8354 260.037 22.8837C259.796 22.932 259.603 22.932 259.41 22.9803C259.41 22.9803 259.362 22.9803 259.313 22.9803C259.024 23.0286 258.735 23.0768 258.445 23.1251C257.914 23.2217 257.335 23.2699 256.805 23.3665C256.66 23.4148 256.467 23.4148 256.322 23.4631H256.274C255.985 23.5113 255.647 23.5596 255.358 23.6562C255.213 23.7044 255.068 23.7044 254.923 23.7527C254.634 23.801 254.296 23.8976 254.007 23.9458C253.959 23.9458 253.862 23.9941 253.814 23.9941C253.38 24.0907 252.945 24.1872 252.511 24.3321H252.463C242.38 27.0839 233.986 32.7807 227.233 41.5191C220.43 50.354 215.654 61.7959 212.953 75.8931C211.602 82.8934 210.782 90.5213 210.396 98.8252C210.251 101.722 210.203 104.715 210.203 107.757L210.251 137.351V144.158V147.586C210.251 160.235 211.361 171.773 213.484 182.201C216.282 195.864 220.961 207.644 227.425 217.493C238.859 234.825 254.972 244.673 275.812 246.991C284.737 248.004 292.842 247.377 300.03 245.204C300.464 245.059 300.898 244.915 301.284 244.818C301.718 244.673 302.104 244.528 302.538 244.384C302.731 244.287 302.924 244.239 303.165 244.142C303.358 244.094 303.503 243.997 303.696 243.949C303.889 243.901 304.034 243.804 304.227 243.756C304.371 243.708 304.564 243.611 304.709 243.563C304.757 243.515 304.854 243.515 304.902 243.466C305.191 243.321 305.481 243.225 305.77 243.08C306.06 242.935 306.349 242.839 306.59 242.694C306.88 242.549 307.169 242.404 307.459 242.259C307.893 242.066 308.327 241.825 308.761 241.583C308.906 241.487 309.099 241.39 309.244 241.342C309.389 241.246 309.581 241.149 309.726 241.052C309.774 241.004 309.871 241.004 309.919 240.956C310.112 240.859 310.257 240.763 310.45 240.666C310.739 240.521 310.981 240.328 311.27 240.183C311.463 240.039 311.704 239.942 311.897 239.797C312.09 239.652 312.283 239.556 312.476 239.411C312.621 239.314 312.717 239.266 312.814 239.17C312.958 239.073 313.103 238.976 313.2 238.88C313.441 238.735 313.634 238.542 313.875 238.397C314.068 238.252 314.309 238.107 314.502 237.914C314.792 237.721 315.033 237.48 315.322 237.287C315.515 237.142 315.708 236.949 315.949 236.804C316.239 236.563 316.528 236.369 316.77 236.128C317.011 235.935 317.252 235.742 317.445 235.5C317.783 235.211 318.072 234.921 318.362 234.631C318.41 234.583 318.458 234.535 318.506 234.487C318.796 234.245 319.037 233.956 319.326 233.714C319.471 233.569 319.616 233.424 319.761 233.28C319.905 233.135 320.05 232.99 320.195 232.797C320.532 232.459 320.822 232.121 321.16 231.783C321.353 231.542 321.545 231.349 321.738 231.107C321.787 231.059 321.835 231.011 321.883 230.962C322.028 230.817 322.173 230.624 322.317 230.48C322.559 230.19 322.8 229.9 323.041 229.611C323.33 229.273 323.62 228.935 323.861 228.548C324.102 228.259 324.295 227.969 324.488 227.679C324.826 227.245 325.164 226.762 325.501 226.279C325.598 226.183 325.646 226.038 325.743 225.941C326.225 225.265 326.707 224.541 327.142 223.817C327.431 223.334 327.72 222.9 328.01 222.417C328.106 222.272 328.155 222.176 328.251 222.031C328.299 221.934 328.396 221.838 328.444 221.693C328.685 221.307 328.878 220.92 329.119 220.534C329.264 220.293 329.361 220.1 329.505 219.858C329.698 219.472 329.891 219.134 330.084 218.748C330.181 218.555 330.277 218.362 330.374 218.169C330.422 218.12 330.422 218.072 330.47 218.024C330.663 217.589 330.856 217.203 331.097 216.769C331.194 216.624 331.242 216.431 331.339 216.286C331.773 215.417 332.159 214.451 332.545 213.534C332.689 213.244 332.786 212.955 332.931 212.617C332.979 212.472 333.075 212.279 333.124 212.134C333.22 211.844 333.365 211.555 333.461 211.265C333.558 210.975 333.654 210.685 333.799 210.444C333.895 210.203 333.944 210.01 334.04 209.768C334.185 209.382 334.33 208.947 334.474 208.561C334.571 208.272 334.667 207.982 334.764 207.741C334.909 207.354 335.053 206.92 335.15 206.485C335.246 206.196 335.343 205.906 335.439 205.616C335.584 205.182 335.68 204.796 335.825 204.361C335.922 204.071 336.018 203.782 336.066 203.444C336.211 203.009 336.308 202.526 336.452 202.044C336.549 201.754 336.597 201.513 336.693 201.223C336.838 200.644 336.983 200.064 337.128 199.485C337.176 199.292 337.224 199.099 337.272 198.906C337.465 197.988 337.707 197.119 337.9 196.202C337.948 196.105 337.948 195.961 337.948 195.864C338.044 195.285 338.189 194.754 338.285 194.174C338.334 193.981 338.334 193.836 338.382 193.643C338.43 193.498 338.43 193.354 338.478 193.209C338.527 192.871 338.575 192.581 338.671 192.243C338.768 191.664 338.864 191.036 338.961 190.457C339.009 190.022 339.106 189.588 339.154 189.153C339.202 188.719 339.299 188.284 339.347 187.85C339.347 187.85 339.347 187.85 339.347 187.802C339.395 187.56 339.395 187.367 339.443 187.126C339.588 186.064 339.733 184.953 339.829 183.891C339.877 183.457 339.926 183.07 339.974 182.636C340.119 181.477 340.215 180.27 340.312 179.063C340.36 178.532 340.408 177.953 340.456 177.422C340.456 177.374 340.456 177.325 340.456 177.277C340.505 176.505 340.553 175.732 340.601 174.911C340.698 173.367 340.794 171.773 340.842 170.18C340.842 169.456 340.891 168.732 340.891 168.008C340.891 167.621 340.891 167.235 340.891 166.897C340.891 166.366 340.891 165.835 340.939 165.304C340.939 164.918 340.939 164.58 340.939 164.242C340.939 163.663 340.939 163.035 340.939 162.456V162.214L341.083 122.481ZM296.074 186.884C295.205 191.76 293.951 195.768 292.407 198.906C290.044 203.54 286.86 206.437 282.807 207.644C282.662 207.692 282.47 207.741 282.325 207.789C282.228 207.789 282.132 207.837 282.035 207.837C281.794 207.885 281.505 207.934 281.263 207.982C280.926 208.03 280.54 208.078 280.202 208.127C280.057 208.127 279.961 208.175 279.816 208.175C279.623 208.175 279.43 208.223 279.237 208.223C279.044 208.223 278.851 208.223 278.61 208.223C278.562 208.223 278.514 208.223 278.514 208.223C278.321 208.223 278.08 208.223 277.887 208.223C277.694 208.223 277.501 208.223 277.356 208.175C277.308 208.175 277.259 208.175 277.211 208.175C277.115 208.175 277.066 208.175 276.97 208.175C276.873 208.175 276.729 208.175 276.632 208.127C276.488 208.127 276.295 208.078 276.15 208.078C276.005 208.078 275.812 208.03 275.667 208.03C275.426 207.982 275.137 207.982 274.896 207.934C274.799 207.934 274.703 207.885 274.558 207.885H274.51C274.413 207.885 274.317 207.837 274.22 207.837C273.882 207.789 273.545 207.692 273.207 207.596C272.821 207.499 272.483 207.403 272.098 207.306C271.905 207.258 271.712 207.161 271.519 207.113C271.374 207.065 271.181 207.016 271.036 206.92C270.747 206.823 270.457 206.678 270.168 206.582C270.071 206.534 270.023 206.534 269.927 206.485C269.734 206.389 269.589 206.34 269.396 206.244H269.348C269.203 206.196 269.107 206.099 268.962 206.051C268.576 205.858 268.238 205.665 267.852 205.423C267.756 205.375 267.659 205.278 267.515 205.23C267.418 205.182 267.37 205.133 267.322 205.085C267.225 205.037 267.08 204.94 266.984 204.844C266.984 204.844 266.984 204.844 266.936 204.796C266.743 204.651 266.55 204.554 266.357 204.409C266.308 204.409 266.308 204.361 266.308 204.361C266.212 204.264 266.067 204.216 265.971 204.12C265.874 204.071 265.826 203.975 265.73 203.927C265.488 203.733 265.247 203.492 265.006 203.299C264.909 203.251 264.861 203.154 264.765 203.058C264.765 203.058 264.765 203.058 264.716 203.009C264.475 202.768 264.234 202.526 263.993 202.285C263.848 202.14 263.752 202.044 263.655 201.899C263.51 201.754 263.366 201.561 263.221 201.368C262.98 201.078 262.739 200.74 262.497 200.451C262.208 200.064 261.918 199.63 261.629 199.195C261.533 199.05 261.484 198.954 261.388 198.809L261.34 198.761C261.195 198.568 261.05 198.326 260.954 198.133C260.809 197.892 260.664 197.602 260.519 197.361C260.423 197.216 260.375 197.071 260.278 196.926C259.941 196.299 259.603 195.623 259.313 194.947C259.217 194.705 259.12 194.512 259.024 194.271C258.927 194.03 258.831 193.836 258.734 193.595C258.493 193.016 258.3 192.388 258.059 191.76C257.963 191.567 257.914 191.326 257.866 191.133C257.818 190.94 257.721 190.747 257.673 190.505C257.625 190.409 257.625 190.264 257.577 190.167C257.432 189.685 257.287 189.202 257.143 188.671C256.998 188.236 256.901 187.753 256.805 187.319C256.708 186.884 256.612 186.498 256.515 186.064C256.467 185.919 256.419 185.726 256.419 185.533C256.371 185.339 256.322 185.195 256.322 185.002C256.178 184.374 256.081 183.795 255.936 183.167C255.454 180.657 255.068 177.905 254.779 174.96C254.73 174.622 254.73 174.284 254.682 173.898C254.537 172.208 254.393 170.47 254.296 168.684C254.248 168.201 254.248 167.718 254.248 167.235C254.2 166.318 254.152 165.401 254.152 164.483C254.152 164.194 254.152 163.904 254.152 163.614C254.152 163.083 254.103 162.552 254.103 162.021C254.103 160.911 254.055 159.752 254.055 158.545V147.296L254.007 102.832C254.007 101.77 254.055 100.756 254.103 99.6942C254.103 99.4045 254.103 99.1148 254.152 98.8252C254.2 97.5699 254.248 96.363 254.344 95.156C254.393 94.7215 254.393 94.287 254.441 93.8525C254.489 93.418 254.489 92.9352 254.537 92.5007C254.586 92.1628 254.586 91.8248 254.634 91.4386C254.682 90.9075 254.73 90.3765 254.779 89.8937C254.827 89.5075 254.875 89.1213 254.923 88.735C254.972 88.3488 255.02 87.9626 255.068 87.5764C255.116 87.1419 255.165 86.7074 255.213 86.3211C255.261 85.9832 255.309 85.6935 255.358 85.3556C255.406 84.9211 255.502 84.4866 255.551 84.0521C255.647 83.4727 255.744 82.8934 255.888 82.3141C256.033 81.3968 256.226 80.5278 256.419 79.6588C256.564 78.9346 256.757 78.2587 256.95 77.6311C256.998 77.438 257.046 77.1966 257.143 77.0035C257.143 76.9552 257.191 76.9069 257.191 76.8586C257.335 76.2793 257.528 75.7 257.721 75.1206C257.77 74.9758 257.818 74.8792 257.866 74.7344C258.011 74.3482 258.107 73.9619 258.252 73.624C258.3 73.5274 258.3 73.4309 258.349 73.3343C258.349 73.286 258.397 73.2378 258.397 73.1895C258.445 73.0929 258.493 72.9481 258.542 72.8515C258.831 72.1274 259.169 71.4032 259.506 70.7273C259.603 70.5342 259.699 70.3411 259.796 70.148C259.892 70.0031 259.941 69.8583 260.037 69.7135C260.134 69.5686 260.182 69.4238 260.278 69.3272C260.423 69.1341 260.519 68.8927 260.664 68.6996C260.761 68.5548 260.857 68.3617 261.002 68.2169C261.098 68.072 261.195 67.9272 261.291 67.8306C261.34 67.7341 261.436 67.6375 261.484 67.5892C261.484 67.541 261.533 67.541 261.581 67.4927C261.822 67.203 262.063 66.8651 262.304 66.6237C262.449 66.4788 262.546 66.334 262.69 66.1892C262.932 65.8995 263.221 65.6581 263.462 65.4167C263.703 65.2236 263.896 65.0305 264.138 64.8374C264.475 64.5477 264.813 64.3063 265.199 64.0649C265.344 63.9684 265.44 63.9201 265.585 63.8235C266.164 63.4373 266.791 63.1476 267.418 62.858C267.659 62.7131 267.949 62.6166 268.238 62.52C268.383 62.4718 268.528 62.4235 268.672 62.3752C268.865 62.3269 269.058 62.2786 269.203 62.2304C271.229 61.6993 273.448 61.5545 275.909 61.7959C282.807 62.5683 288.066 66.334 291.587 73.0447C291.877 73.5757 292.118 74.1068 292.407 74.6861C292.504 74.8792 292.6 75.0723 292.649 75.2654C296.17 83.3762 297.955 95.3009 297.955 110.991V128.854L298.003 164.918C297.714 173.608 297.135 180.898 296.074 186.884Z" fill="#F68C47"/>
<path d="M401.102 172.739L436.801 162.552L470.522 166.318L434.823 176.456L401.102 172.739Z" fill="#CC743B"/>
<path d="M434.726 109.398L432.025 114.178L401.102 172.739L436.801 162.552L467.772 104.039L470.473 99.2114L434.726 109.398Z" fill="#A15B2E"/>
<path d="M478.191 220.245L513.939 210.058L513.987 256.357L478.288 266.495L478.191 220.245Z" fill="#A15B2E"/>
<path d="M497.199 183.408L532.947 173.27L532.995 212.182L497.247 222.369L497.199 183.408Z" fill="#A15B2E"/>
<path d="M478.191 181.284L513.89 171.146L532.946 173.27L497.199 183.409L478.191 181.284Z" fill="#CC743B"/>
<path d="M478.043 48.4712L513.742 38.3328L513.887 171.146L478.188 181.284L478.043 48.4712Z" fill="#A15B2E"/>
<path d="M434.676 44.0779L470.375 33.9395L513.744 38.3328L478.045 48.4712L434.676 44.0779Z" fill="#CC743B"/>
<path d="M478.194 181.284L497.25 183.408L497.298 222.369L478.242 220.245L478.291 266.495L434.921 261.667L434.873 215.417L362.414 207.354L359.809 176.215L434.68 44.0779L478.05 48.4712L478.194 181.284ZM434.825 176.456L434.777 109.35L432.075 114.129L401.152 172.691L434.825 176.456Z" fill="#F68C47"/>
<defs>
<filter id="filter0_f" x="0" y="220.066" width="183.978" height="63.216" filterUnits="userSpaceOnUse" color-interpolation-filters="sRGB">
<feFlood flood-opacity="0" result="BackgroundImageFix"/>
<feBlend mode="normal" in="SourceGraphic" in2="BackgroundImageFix" result="shape"/>
<feGaussianBlur stdDeviation="4" result="effect1_foregroundBlur"/>
</filter>
<filter id="filter1_f" x="307.672" y="253.522" width="183.978" height="63.2159" filterUnits="userSpaceOnUse" color-interpolation-filters="sRGB">
<feFlood flood-opacity="0" result="BackgroundImageFix"/>
<feBlend mode="normal" in="SourceGraphic" in2="BackgroundImageFix" result="shape"/>
<feGaussianBlur stdDeviation="4" result="effect1_foregroundBlur"/>
</filter>
<filter id="filter2_f" x="84.0547" y="233.646" width="246.196" height="90.6549" filterUnits="userSpaceOnUse" color-interpolation-filters="sRGB">
<feFlood flood-opacity="0" result="BackgroundImageFix"/>
<feBlend mode="normal" in="SourceGraphic" in2="BackgroundImageFix" result="shape"/>
<feGaussianBlur stdDeviation="4" result="effect1_foregroundBlur"/>
</filter>
<linearGradient id="paint0_linear" x1="169.377" y1="206.641" x2="-1.43835" y2="278.967" gradientUnits="userSpaceOnUse">
<stop/>
<stop offset="1" stop-color="white" stop-opacity="0"/>
</linearGradient>
<linearGradient id="paint1_linear" x1="484.81" y1="248.03" x2="283.558" y2="307.682" gradientUnits="userSpaceOnUse">
<stop/>
<stop offset="1" stop-color="white" stop-opacity="0"/>
</linearGradient>
<linearGradient id="paint2_linear" x1="327.647" y1="239.057" x2="80.8655" y2="305.54" gradientUnits="userSpaceOnUse">
<stop/>
<stop offset="1" stop-color="white" stop-opacity="0"/>
</linearGradient>
</defs>
</svg>
