<svg width="46" height="47" viewBox="0 0 46 47" fill="none" xmlns="http://www.w3.org/2000/svg">
<path d="M10.8491 8C8.15894 8 6 10.1675 6 12.8491V35.1509C6 37.841 8.15894 40 10.8491 40H33.1509C35.8325 40 38 37.841 38 35.1509V12.8491C38 10.1675 35.8325 8 33.1509 8H10.8491ZM17.9083 11.4005H26.0491C30.7509 11.4005 34.4672 15.5328 34.4672 20.5248V24.608C34.4672 29.6 30.7424 33.6256 26.0747 33.7323L19.1243 33.8923C18.3584 34.6496 17.5093 35.424 16.7157 36.0171C16.2742 36.3413 15.8581 36.6251 15.4592 36.8256C15.2587 36.9323 15.0752 37.0176 14.8341 37.0752C14.608 37.1326 14.2837 37.2159 13.8507 36.9835C13.2171 36.6336 13.1915 36.175 13.1339 35.8336C13.074 35.4923 13.0592 35.1339 13.074 34.7243C13.074 34.0416 13.2084 33.167 13.3407 32.2838C11.0751 30.4491 9.50069 27.7675 9.50069 24.608V20.5334C9.50069 15.5414 13.217 11.4091 17.9082 11.4091L17.9083 11.4005ZM17.9083 13.4165C14.4075 13.4165 11.5168 16.5248 11.5168 20.5248V24.608C11.5168 27.3493 12.8843 29.7003 14.9664 31.1573L15.4912 31.5243L15.3824 32.1493C15.216 33.1328 15.1242 34.016 15.1008 34.6667C15.2416 34.575 15.3504 34.5259 15.5168 34.4C16.3082 33.809 17.2661 32.9664 18.017 32.192L18.3093 31.8997L26.0341 31.7162C29.5669 31.6415 32.449 28.6165 32.449 24.608V20.5333C32.449 16.5248 29.5584 13.4251 26.0576 13.4251H17.9082L17.9083 13.4165ZM23.0581 15.8656C26.4416 15.8656 29.1659 18.7157 29.1659 22.1909C29.1743 22.4747 28.9504 22.7094 28.6667 22.7094C28.3829 22.7094 28.1504 22.4747 28.1589 22.1909C28.1589 19.2427 25.8741 16.8747 23.0581 16.8747C22.384 16.8747 22.384 15.8656 23.0581 15.8656ZM17.5093 16.6421C17.8827 16.6996 18.2411 17.024 18.8256 17.8091C19.7749 19.0592 20.0331 19.7163 19.7493 20.1408C19.6832 20.224 19.4421 20.5077 19.2074 20.7509C18.8 21.184 18.7744 21.216 18.7744 21.5339C18.7744 21.9328 19.2587 22.9675 19.7493 23.6075C20.3829 24.4587 21.424 25.2906 22.2005 25.5744C22.9408 25.8411 23.3995 25.7493 23.792 25.2331C24.2336 24.6422 24.7243 24.5163 25.3259 24.8171C26.1664 25.2416 27.5744 26.3829 27.7579 26.7989C27.9094 27.1254 27.5254 27.8656 26.8917 28.5077C26.367 29.0325 25.8677 29.216 25.2661 29.0923C24.1909 28.8747 21.6907 27.4837 20.1589 26.2507C18.6165 25.0005 17.2171 23.1509 16.0843 20.8427C15.184 18.9995 15.1755 18.4491 16.0244 17.5254C16.2164 17.3163 16.5492 17.0411 16.7668 16.8918C17.0505 16.7168 17.2745 16.625 17.4921 16.6422L17.5093 16.6421ZM23.1243 17.9008C23.1412 17.9008 23.1581 17.9008 23.1841 17.9008C25.4092 17.9008 27.2012 19.776 27.2012 22.0587C27.2163 22.3424 26.9836 22.5749 26.6999 22.5749C26.4162 22.5749 26.1922 22.3424 26.2007 22.0587C26.2007 20.3008 24.8418 18.9077 23.1842 18.9077C22.5079 18.9507 22.4503 17.9413 23.1243 17.9008H23.1243ZM22.8171 19.5157C22.8425 19.5157 22.8576 19.5157 22.8745 19.5157C24.4084 19.5157 25.6329 20.8 25.6329 22.3573C25.6329 22.6326 25.4089 22.8586 25.1252 22.8586C24.85 22.8586 24.6239 22.6325 24.6239 22.3573C24.6238 21.3248 23.8409 20.5248 22.8745 20.5248C22.2089 20.5677 22.1492 19.5584 22.8171 19.5157H22.8171Z" fill="#414857"/>
</svg>
