<svg width="46" height="50" viewBox="0 0 46 50" fill="none" xmlns="http://www.w3.org/2000/svg">
<path d="M10.0006 6C7.2264 6 5 8.16747 5 10.8491V33.1509C5 35.841 7.2264 38 10.0006 38H32.9994C35.7648 38 38 35.841 38 33.1509V10.8491C38 8.16747 35.7648 6 32.9994 6H10.0006ZM21.4494 9.0251C22.2216 9.0251 23.0048 9.02507 23.5372 9.10828C26.0452 9.4667 28.804 10.8491 30.7466 12.7328C32.654 14.5824 33.831 16.6411 34.425 19.1989C34.7858 20.7243 34.6824 23.359 34.194 25.1424C33.127 28.9824 29.904 32.3829 26.0804 33.6843C24.5932 34.192 23.9662 34.3093 22.3162 34.3584C19.8852 34.4331 18.2352 34.1408 16.2926 33.2917C15.2102 32.8245 15.7514 32.7328 11.5824 34.0341C9.89941 34.5589 8.4804 34.9835 8.4386 34.9835C8.37686 34.9835 8.35941 34.9174 8.35941 34.8341C8.35941 34.7509 8.85 33.3003 9.444 31.6086C10.0358 29.9254 10.5176 28.5003 10.5176 28.4576C10.5176 28.3915 10.3108 27.9243 10.0622 27.3995C9.1602 25.4582 8.83241 24.1419 8.7466 22.0918C8.68736 20.4918 8.85878 19.2502 9.34939 17.808C10.8696 13.392 14.6756 10.1323 19.4298 9.20005C19.9182 9.09972 20.675 9.05074 21.4494 9.0251H21.4494ZM21.654 11.2245C20.8048 11.2245 19.9534 11.2844 19.4298 11.3909C17.144 11.8667 15.2608 12.8843 13.6636 14.4843C12.1852 15.984 11.2392 17.759 10.7926 19.9094C10.5594 21.0656 10.577 23.1925 10.8608 24.1995C11.094 25.1253 11.7298 26.6165 12.2182 27.3995C12.4162 27.7173 12.5701 28.0501 12.5701 28.1504C12.5701 28.2507 12.3304 29.0741 12.0377 29.9744C11.7451 30.8747 11.5054 31.6917 11.5054 31.7835C11.5054 32.0502 11.7297 32.0075 13.7494 31.391L15.5952 30.8256L16.473 31.2501C17.8986 31.9498 19.3858 32.3914 20.6926 32.5088C21.3878 32.5662 23.0554 32.5088 23.8122 32.3509C27.2486 31.7173 30.2494 29.4176 31.8048 26.241C32.5 24.8074 32.6716 24.0906 32.7244 22.3989C32.7836 21.2832 32.7244 20.7328 32.6209 20.1333C31.8201 15.6661 28.5135 12.3424 23.9067 11.3909C23.3743 11.2842 22.5229 11.2245 21.6715 11.2245L21.654 11.2245ZM17.4256 16.1248C17.5554 16.1248 17.694 16.1248 17.804 16.1248C18.0373 16.1248 18.2176 16.1822 18.2858 16.2741C18.6202 16.6325 19.4122 18.4906 19.4892 19.0581C19.5485 19.425 19.4892 19.4912 19.0757 20.0501C18.7852 20.4256 18.6203 20.7328 18.6203 20.8842C18.6203 21.4752 20.3407 23.4165 21.5177 24.1589C22.2393 24.609 23.0203 24.9418 23.3745 24.9418C23.6737 24.9418 24.0433 24.6496 24.5757 23.9754C24.9629 23.4912 25.0069 23.4656 25.2819 23.5082C25.4447 23.5082 26.1663 23.8175 26.8791 24.1418L28.1683 24.7242V25.1509C28.1764 25.8336 28.0055 26.2411 27.5061 26.7253C26.8285 27.3824 26.3467 27.5829 25.3149 27.6085C24.5427 27.6085 24.3953 27.6085 23.5373 27.3162C23.0136 27.1413 22.2392 26.8427 21.7926 26.6421C19.1878 25.4411 16.0506 22.0491 15.5006 19.8411C15.3378 19.167 15.4413 18.017 15.725 17.4581C16.0176 16.8672 16.6446 16.2507 17.0142 16.176C17.1506 16.176 17.2892 16.1161 17.4256 16.1161L17.4256 16.1248Z" fill="#414857"/>
</svg>
