<svg width="24" height="24" viewBox="0 0 24 24" fill="none" xmlns="http://www.w3.org/2000/svg">
<path d="M14.3102 16.38L13.0002 17.64V12C13.0002 11.7348 12.8948 11.4804 12.7073 11.2929C12.5198 11.1054 12.2654 11 12.0002 11C11.735 11 11.4806 11.1054 11.2931 11.2929C11.1055 11.4804 11.0002 11.7348 11.0002 12V17.59L9.71019 16.29C9.61695 16.1968 9.50626 16.1228 9.38444 16.0723C9.26261 16.0219 9.13204 15.9959 9.00019 15.9959C8.86833 15.9959 8.73776 16.0219 8.61594 16.0723C8.49411 16.1228 8.38342 16.1968 8.29019 16.29C8.19695 16.3832 8.12299 16.4939 8.07253 16.6158C8.02207 16.7376 7.99609 16.8681 7.99609 17C7.99609 17.1319 8.02207 17.2624 8.07253 17.3842C8.12299 17.5061 8.19695 17.6168 8.29019 17.71L11.2902 20.71C11.3836 20.8027 11.4944 20.876 11.6163 20.9258C11.7381 20.9755 11.8686 21.0008 12.0002 21C12.2577 20.999 12.5048 20.8987 12.6902 20.72L15.6902 17.82C15.7963 17.7324 15.8832 17.6239 15.9455 17.5013C16.0077 17.3786 16.044 17.2444 16.052 17.107C16.0601 16.9697 16.0397 16.8322 15.9921 16.7031C15.9446 16.574 15.8709 16.4561 15.7757 16.3568C15.6805 16.2575 15.5659 16.1788 15.4389 16.1259C15.312 16.0729 15.1754 16.0466 15.0379 16.0488C14.9003 16.051 14.7647 16.0815 14.6395 16.1385C14.5143 16.1955 14.4022 16.2777 14.3102 16.38Z" fill="white"/>
<path d="M17.6684 6.99998C17.2604 5.82103 16.495 4.7986 15.4788 4.07494C14.4625 3.35129 13.246 2.9624 11.9984 2.9624C10.7509 2.9624 9.53433 3.35129 8.5181 4.07494C7.50186 4.7986 6.73647 5.82103 6.32843 6.99998C5.42998 7.12032 4.58115 7.48263 3.87273 8.04817C3.16431 8.61371 2.62297 9.3612 2.3066 10.2107C1.99023 11.0601 1.91074 11.9796 2.07664 12.8708C2.24253 13.762 2.64758 14.5913 3.24843 15.27C3.32101 15.3978 3.42088 15.5081 3.54094 15.5929C3.66099 15.6778 3.79828 15.7351 3.94302 15.7608C4.08776 15.7866 4.23639 15.7801 4.37833 15.7418C4.52027 15.7035 4.65203 15.6345 4.76423 15.5395C4.87643 15.4445 4.9663 15.3259 5.02745 15.1922C5.08859 15.0585 5.11952 14.913 5.11801 14.766C5.1165 14.619 5.0826 14.4742 5.01872 14.3417C4.95484 14.2093 4.86255 14.0927 4.74843 14C4.36155 13.5674 4.10842 13.032 4.01972 12.4585C3.93102 11.885 4.01056 11.2981 4.2487 10.7689C4.48685 10.2396 4.87337 9.79087 5.36142 9.47691C5.84948 9.16295 6.41812 8.99728 6.99843 8.99998H7.09843C7.33238 9.0047 7.56057 8.92723 7.74329 8.78105C7.92601 8.63488 8.05168 8.42926 8.09843 8.19998C8.28204 7.29575 8.77261 6.4828 9.48702 5.89888C10.2014 5.31496 11.0957 4.99597 12.0184 4.99597C12.9411 4.99597 13.8354 5.31496 14.5498 5.89888C15.2642 6.4828 15.7548 7.29575 15.9384 8.19998C15.9852 8.42926 16.1109 8.63488 16.2936 8.78105C16.4763 8.92723 16.7045 9.0047 16.9384 8.99998H16.9984C17.5787 8.99728 18.1474 9.16295 18.6354 9.47691C19.1235 9.79087 19.51 10.2396 19.7482 10.7689C19.9863 11.2981 20.0658 11.885 19.9771 12.4585C19.8884 13.032 19.6353 13.5674 19.2484 14C19.1603 14.0988 19.0927 14.214 19.0495 14.3392C19.0063 14.4643 18.9884 14.5967 18.9968 14.7288C19.0052 14.8609 19.0397 14.99 19.0983 15.1086C19.157 15.2273 19.2386 15.3331 19.3384 15.42C19.5207 15.5808 19.7554 15.6696 19.9984 15.67C20.1404 15.6698 20.2807 15.6394 20.4101 15.5808C20.5394 15.5221 20.6547 15.4366 20.7484 15.33C21.366 14.6524 21.7853 13.8181 21.9607 12.9183C22.136 12.0185 22.0606 11.0878 21.7427 10.228C21.4247 9.3681 20.8765 8.61221 20.158 8.04291C19.4394 7.47362 18.5782 7.11282 17.6684 6.99998Z" fill="white"/>
</svg>
