<svg width="46" height="19" viewBox="0 0 46 19" fill="none" xmlns="http://www.w3.org/2000/svg">
<path d="M29.7622 0C28.1735 0 26.8984 1.27586 26.8984 2.85436V15.9821C26.8984 17.5656 28.1735 18.8365 29.7622 18.8365H42.9334C44.5171 18.8365 45.7972 17.5656 45.7972 15.9821V2.85436C45.7972 1.27586 44.5171 0 42.9334 0H29.7622ZM36.3188 1.78069C36.7611 1.78069 37.2096 1.78068 37.5145 1.82966C38.9508 2.04064 40.5307 2.85438 41.6432 3.96322C42.7356 5.05197 43.4096 6.26378 43.7498 7.76944C43.9564 8.66732 43.8972 10.2182 43.6175 11.268C43.0065 13.5284 41.1607 15.5301 38.9709 16.2961C38.1192 16.595 37.7602 16.664 36.8152 16.6929C35.423 16.7369 34.4781 16.5648 33.3656 16.065C32.7457 15.79 33.0557 15.736 30.6681 16.502C29.7043 16.8109 28.8916 17.0609 28.8677 17.0609C28.8323 17.0609 28.8223 17.0219 28.8223 16.9729C28.8223 16.924 29.1033 16.0701 29.4435 15.0743C29.7824 14.0835 30.0583 13.2446 30.0583 13.2195C30.0583 13.1806 29.9399 12.9055 29.7975 12.5966C29.2809 11.4539 29.0932 10.6791 29.0441 9.47227C29.0101 8.53045 29.1083 7.79958 29.3893 6.95068C30.2599 4.35124 32.4395 2.43245 35.1622 1.88368C35.4419 1.82462 35.8753 1.79579 36.3188 1.78069H36.3188ZM36.436 3.07537C35.9497 3.07537 35.4621 3.11061 35.1622 3.17333C33.8532 3.45337 32.7747 4.05237 31.86 4.99419C31.0133 5.87699 30.4716 6.9218 30.2158 8.18762C30.0823 8.86825 30.0923 10.1202 30.2548 10.713C30.3884 11.258 30.7525 12.1357 31.0322 12.5966C31.1456 12.7837 31.2338 12.9796 31.2338 13.0386C31.2338 13.0977 31.0964 13.5824 30.9289 14.1123C30.7613 14.6423 30.624 15.1232 30.624 15.1772C30.624 15.3342 30.7525 15.3091 31.9091 14.9462L32.9662 14.6134L33.4689 14.8632C34.2853 15.2751 35.137 15.5351 35.8854 15.6041C36.2835 15.638 37.2385 15.6041 37.672 15.5112C39.6399 15.1382 41.3585 13.7845 42.2492 11.9147C42.6474 11.0708 42.7456 10.6489 42.7759 9.65306C42.8098 8.9963 42.7759 8.67231 42.7166 8.31944C42.258 5.68987 40.3644 3.73338 37.7261 3.1733C37.4212 3.11047 36.9336 3.07534 36.446 3.07534L36.436 3.07537ZM34.0144 5.95987C34.0888 5.95987 34.1682 5.95987 34.2312 5.95987C34.3647 5.95987 34.468 5.99369 34.5071 6.04776C34.6986 6.25874 35.1522 7.35249 35.1963 7.68652C35.2302 7.90252 35.1963 7.94145 34.9594 8.27047C34.7931 8.49149 34.6986 8.67231 34.6986 8.76146C34.6986 9.10931 35.6839 10.252 36.3579 10.6891C36.7712 10.954 37.2185 11.1499 37.4213 11.1499C37.5926 11.1499 37.8043 10.9779 38.1092 10.5811C38.331 10.296 38.3562 10.281 38.5136 10.306C38.6069 10.306 39.0201 10.4881 39.4283 10.679L40.1667 11.0218V11.273C40.1713 11.6749 40.0734 11.9147 39.7874 12.1998C39.3994 12.5866 39.1234 12.7046 38.5325 12.7197C38.0903 12.7197 38.0059 12.7197 37.5145 12.5476C37.2146 12.4446 36.7711 12.2688 36.5154 12.1508C35.0236 11.4438 33.227 9.44714 32.912 8.14742C32.8188 7.75061 32.8781 7.07372 33.0405 6.74471C33.2081 6.39686 33.5671 6.03396 33.7788 5.99002C33.857 5.99002 33.9363 5.95477 34.0144 5.95477L34.0144 5.95987Z" fill="#BB31D1"/>
<path d="M2.86379 0C1.27504 0 0 1.27586 0 2.85436V15.9821C0 17.5656 1.27504 18.8365 2.86379 18.8365H16.0349C17.6187 18.8365 18.8987 17.5656 18.8987 15.9821V2.85436C18.8987 1.27586 17.6187 0 16.0349 0H2.86379ZM7.03285 2.00168H11.8407C14.6175 2.00168 16.8123 4.43411 16.8123 7.3726V9.77614C16.8123 12.7146 14.6125 15.0843 11.8558 15.1471L7.751 15.2412C7.29869 15.687 6.79724 16.1429 6.32856 16.492C6.06777 16.6829 5.82207 16.8499 5.58646 16.9679C5.46804 17.0308 5.35968 17.0809 5.21731 17.1148C5.08374 17.1486 4.89225 17.1977 4.63649 17.0609C4.2623 16.8549 4.24718 16.5849 4.21316 16.384C4.1778 16.1831 4.16905 15.9721 4.1778 15.731C4.1778 15.3291 4.25716 14.8143 4.3353 14.2944C2.99727 13.2145 2.06746 11.636 2.06746 9.77617V7.37766C2.06746 4.43916 4.26223 2.00673 7.03278 2.00673L7.03285 2.00168ZM7.03285 3.1884C4.96533 3.1884 3.25814 5.01804 3.25814 7.3726V9.77614C3.25814 11.3898 4.06575 12.7737 5.29542 13.6314L5.60535 13.8473L5.5411 14.2153C5.44282 14.7942 5.38864 15.3141 5.37478 15.6971C5.45793 15.6431 5.52221 15.6142 5.62046 15.5401C6.08789 15.1922 6.65359 14.6962 7.09709 14.2404L7.26969 14.0683L11.8318 13.9603C13.9183 13.9163 15.6204 12.1357 15.6204 9.77614V7.37763C15.6204 5.01805 13.9132 3.19343 11.8457 3.19343H7.03282L7.03285 3.1884ZM10.0743 4.63C12.0725 4.63 13.6814 6.30772 13.6814 8.35336C13.6864 8.52038 13.5542 8.65854 13.3866 8.65854C13.219 8.65854 13.0817 8.52042 13.0867 8.35336C13.0867 6.6179 11.7374 5.224 10.0743 5.224C9.67615 5.224 9.67616 4.63 10.0743 4.63ZM6.79724 5.0871C7.01774 5.12091 7.2294 5.31191 7.57462 5.77403C8.13528 6.50991 8.28772 6.89667 8.12016 7.14657C8.08112 7.19555 7.93873 7.36256 7.80012 7.50571C7.55948 7.76061 7.54438 7.77948 7.54438 7.96658C7.54438 8.20141 7.83037 8.81046 8.12016 9.18719C8.49435 9.68824 9.10919 10.178 9.5678 10.345C10.005 10.502 10.2759 10.448 10.5077 10.1441C10.7685 9.79625 11.0583 9.72215 11.4136 9.89922C11.91 10.1491 12.7415 10.8209 12.8499 11.0658C12.9393 11.258 12.7126 11.6937 12.3383 12.0717C12.0284 12.3806 11.7336 12.4886 11.3783 12.4158C10.7433 12.2877 9.26668 11.4689 8.36206 10.7431C7.45114 10.0072 6.62464 8.91846 5.95562 7.55972C5.42394 6.47474 5.4189 6.15076 5.92026 5.60701C6.03366 5.48395 6.23019 5.32195 6.35871 5.23405C6.52628 5.13107 6.65857 5.07705 6.78709 5.08712L6.79724 5.0871ZM10.1133 5.82802C10.1233 5.82802 10.1333 5.82802 10.1487 5.82802C11.4628 5.82802 12.5211 6.93183 12.5211 8.2755C12.53 8.44252 12.3926 8.5794 12.2251 8.5794C12.0575 8.5794 11.9252 8.44252 11.9302 8.2755C11.9302 7.24075 11.1277 6.42074 10.1487 6.42074C9.74931 6.44602 9.7153 5.85188 10.1134 5.82802H10.1133ZM9.93192 6.77863C9.94692 6.77863 9.95584 6.77863 9.96584 6.77863C10.8717 6.77863 11.5949 7.53461 11.5949 8.45132C11.5949 8.61332 11.4626 8.74639 11.2951 8.74639C11.1325 8.74639 10.999 8.61328 10.999 8.45132C10.999 7.84353 10.5366 7.3726 9.96584 7.3726C9.57275 7.39788 9.53747 6.80375 9.93191 6.77863H9.93192Z" fill="#54FF5B"/>
</svg>
