<svg width="25" height="26" viewBox="0 0 25 26" fill="none" xmlns="http://www.w3.org/2000/svg">
<path d="M19.9869 15.0408C19.9597 15.0194 19.9342 14.9963 19.9092 14.9721L7.44841 2.93531C7.42334 2.91109 7.39905 2.88605 7.37689 2.85976C5.74089 4.20499 4.16674 5.61002 2.6541 7.07441C-0.884699 10.5002 -0.884699 16.0588 2.6541 19.4845L2.77706 19.6033C6.323 23.0213 12.0774 23.0213 15.6238 19.6029C17.1398 18.1417 18.5943 16.6212 19.9869 15.0408Z" fill="#F68C47"/>
<path d="M22.5788 12.3928L10.1182 0.356145C9.62666 -0.118715 8.82972 -0.118715 8.33819 0.356145C7.84661 0.831004 7.84661 1.60084 8.33819 2.07564L20.7988 14.1124C21.2904 14.5872 22.0873 14.5872 22.5788 14.1124C23.0704 13.6375 23.0704 12.8677 22.5788 12.3928Z" fill="#F68C47"/>
<path d="M22.9041 16.7474C21.0233 20.0938 19.5293 26 22.9041 26C26.2789 26 25.0517 20.3017 22.9041 16.7474Z" fill="#F68C47"/>
</svg>
