<svg width="23" height="25" viewBox="0 0 23 25" fill="none" xmlns="http://www.w3.org/2000/svg">
<path d="M22.9803 23.5285L20.319 8.72029C20.2119 8.12414 19.6918 7.69018 19.0844 7.69018H14.6583C15.4881 6.87496 16.0039 5.74245 16.0039 4.49169C16.0039 2.01494 13.9835 0 11.5 0C9.01661 0 6.99614 2.01494 6.99614 4.49169C6.99614 5.74245 7.51188 6.87496 8.34175 7.69018H3.91561C3.30823 7.69018 2.78823 8.12414 2.68104 8.72029L0.0196691 23.5285C-0.0458012 23.8931 0.0539511 24.2678 0.292336 24.5519C0.530638 24.8359 0.882907 25 1.25424 25H21.7458C22.1171 25 22.4694 24.8359 22.7077 24.5519C22.946 24.2678 23.0458 23.8931 22.9803 23.5285ZM11.5 2.50168C12.6003 2.50168 13.4954 3.39437 13.4954 4.49169C13.4954 5.58901 12.6003 6.48178 11.5 6.48178C10.3998 6.48178 9.50458 5.58901 9.50458 4.49169C9.50458 3.39437 10.3998 2.50168 11.5 2.50168ZM11.1723 19.3569C11.107 19.4769 10.9809 19.5517 10.8439 19.5517H10.2523C10.1197 19.5517 9.99691 19.4816 9.92985 19.3675L8.46559 16.8745L7.52919 17.8278V18.9759C7.52919 19.2939 7.27065 19.5517 6.95174 19.5517C6.63284 19.5517 6.3743 19.2939 6.3743 18.9759V14.423C6.3743 14.105 6.63284 13.8472 6.95174 13.8472C7.27065 13.8472 7.52919 14.105 7.52919 14.423V16.3803L9.75158 13.9677C9.82232 13.8909 9.92215 13.8472 10.0267 13.8472H10.5345C10.6845 13.8472 10.8198 13.9366 10.8785 14.0742C10.937 14.2119 10.9073 14.3712 10.8031 14.4787L9.2616 16.0689L11.1571 18.9759C11.2318 19.0906 11.2377 19.2367 11.1723 19.3569ZM16.8617 18.5972C16.8617 18.7104 16.8098 18.818 16.7211 18.8886C16.4907 19.072 16.1871 19.2366 15.8103 19.3824C15.3511 19.5601 14.8861 19.6489 14.4154 19.6489C13.817 19.6489 13.2957 19.5238 12.8507 19.2734C12.406 19.0231 12.0716 18.6652 11.848 18.1994C11.6242 17.7338 11.5124 17.2274 11.5124 16.6799C11.5124 16.0859 11.6373 15.5579 11.887 15.0962C12.1367 14.6344 12.5022 14.2804 12.9835 14.0339C13.35 13.8446 13.8066 13.7498 14.3529 13.7498C15.063 13.7498 15.6177 13.8984 16.017 14.1954C16.19 14.3241 16.3362 14.4741 16.4557 14.6454C16.5699 14.8091 16.5931 15.0193 16.5173 15.2037C16.4416 15.3883 16.2773 15.5221 16.0807 15.5588L16.0794 15.5591C15.8491 15.602 15.6156 15.5003 15.491 15.3025C15.4112 15.1759 15.3094 15.0676 15.1859 14.9774C14.9634 14.8153 14.6858 14.7343 14.3529 14.7343C13.8482 14.7343 13.4469 14.8939 13.1493 15.2128C12.8514 15.532 12.7025 16.0054 12.7025 16.6332C12.7025 17.3103 12.8533 17.8181 13.1551 18.1566C13.4568 18.4951 13.8521 18.6644 14.3413 18.6644C14.5831 18.6644 14.8257 18.6171 15.0689 18.5224C15.312 18.4277 15.5207 18.3128 15.6951 18.1781V17.4542H14.8543C14.5882 17.4542 14.3725 17.239 14.3725 16.9737C14.3725 16.7083 14.5883 16.4932 14.8543 16.4932H16.4881C16.6944 16.4932 16.8617 16.6601 16.8617 16.8658V18.5972Z" fill="#F68C47"/>
</svg>
