<svg width="24" height="24" viewBox="0 0 24 24" fill="none" xmlns="http://www.w3.org/2000/svg">
<path d="M14.3102 16.38L13.0002 17.64V12C13.0002 11.7348 12.8948 11.4804 12.7073 11.2929C12.5198 11.1054 12.2654 11 12.0002 11C11.735 11 11.4806 11.1054 11.2931 11.2929C11.1055 11.4804 11.0002 11.7348 11.0002 12V17.59L9.71019 16.29C9.61695 16.1968 9.50626 16.1228 9.38444 16.0723C9.26261 16.0219 9.13204 15.9959 9.00019 15.9959C8.86833 15.9959 8.73776 16.0219 8.61594 16.0723C8.49411 16.1228 8.38342 16.1968 8.29019 16.29C8.19695 16.3832 8.12299 16.4939 8.07253 16.6158C8.02207 16.7376 7.99609 16.8681 7.99609 17C7.99609 17.1319 8.02207 17.2624 8.07253 17.3842C8.12299 17.5061 8.19695 17.6168 8.29019 17.71L11.2902 20.71C11.3836 20.8027 11.4944 20.876 11.6163 20.9258C11.7381 20.9755 11.8686 21.0008 12.0002 21C12.2577 20.999 12.5048 20.8987 12.6902 20.72L15.6902 17.82C15.7963 17.7324 15.8832 17.6239 15.9455 17.5013C16.0077 17.3786 16.044 17.2444 16.052 17.107C16.0601 16.9697 16.0397 16.8322 15.9921 16.7031C15.9446 16.574 15.8709 16.4561 15.7757 16.3568C15.6805 16.2575 15.5659 16.1788 15.4389 16.1259C15.312 16.0729 15.1754 16.0466 15.0379 16.0488C14.9003 16.051 14.7647 16.0815 14.6395 16.1385C14.5143 16.1955 14.4022 16.2777 14.3102 16.38Z" fill="#F68C47"/>
<path d="M17.6704 6.99998C17.2623 5.82103 16.497 4.7986 15.4807 4.07494C14.4645 3.35129 13.2479 2.9624 12.0004 2.9624C10.7528 2.9624 9.53628 3.35129 8.52005 4.07494C7.50381 4.7986 6.73842 5.82103 6.33038 6.99998C5.43194 7.12032 4.5831 7.48263 3.87468 8.04817C3.16627 8.61371 2.62492 9.3612 2.30855 10.2107C1.99218 11.0601 1.91269 11.9796 2.07859 12.8708C2.24449 13.762 2.64953 14.5913 3.25038 15.27C3.32296 15.3978 3.42284 15.5081 3.54289 15.5929C3.66295 15.6778 3.80023 15.7351 3.94497 15.7608C4.08971 15.7866 4.23834 15.7801 4.38029 15.7418C4.52223 15.7035 4.65399 15.6345 4.76618 15.5395C4.87838 15.4445 4.96825 15.3259 5.0294 15.1922C5.09055 15.0585 5.12147 14.913 5.11996 14.766C5.11845 14.619 5.08455 14.4742 5.02067 14.3417C4.95679 14.2093 4.86451 14.0927 4.75038 14C4.3635 13.5674 4.11037 13.032 4.02167 12.4585C3.93297 11.885 4.01252 11.2981 4.25066 10.7689C4.4888 10.2396 4.87532 9.79087 5.36338 9.47691C5.85143 9.16295 6.42007 8.99728 7.00038 8.99998H7.10038C7.33433 9.0047 7.56252 8.92723 7.74524 8.78105C7.92796 8.63488 8.05363 8.42926 8.10038 8.19998C8.284 7.29575 8.77457 6.4828 9.48898 5.89888C10.2034 5.31496 11.0977 4.99597 12.0204 4.99597C12.9431 4.99597 13.8374 5.31496 14.5518 5.89888C15.2662 6.4828 15.7568 7.29575 15.9404 8.19998C15.9871 8.42926 16.1128 8.63488 16.2955 8.78105C16.4782 8.92723 16.7064 9.0047 16.9404 8.99998H17.0004C17.5807 8.99728 18.1493 9.16295 18.6374 9.47691C19.1254 9.79087 19.512 10.2396 19.7501 10.7689C19.9883 11.2981 20.0678 11.885 19.9791 12.4585C19.8904 13.032 19.6373 13.5674 19.2504 14C19.1623 14.0988 19.0947 14.214 19.0515 14.3392C19.0083 14.4643 18.9904 14.5967 18.9987 14.7288C19.0071 14.8609 19.0416 14.99 19.1003 15.1086C19.1589 15.2273 19.2405 15.3331 19.3404 15.42C19.5227 15.5808 19.7573 15.6696 20.0004 15.67C20.1424 15.6698 20.2827 15.6394 20.412 15.5808C20.5413 15.5221 20.6567 15.4366 20.7504 15.33C21.3679 14.6524 21.7873 13.8181 21.9626 12.9183C22.138 12.0185 22.0625 11.0878 21.7446 10.228C21.4267 9.3681 20.8785 8.61221 20.1599 8.04291C19.4414 7.47362 18.5802 7.11282 17.6704 6.99998Z" fill="#F68C47"/>
</svg>
