<svg width="70" height="29" viewBox="0 0 70 29" fill="none" xmlns="http://www.w3.org/2000/svg">
<path d="M45.3945 0C42.9565 0 41 1.96427 41 4.39447V24.6055C41 27.0434 42.9565 29 45.3945 29H65.6055C68.0357 29 70 27.0434 70 24.6055V4.39447C70 1.96427 68.0357 0 65.6055 0H45.3945ZM55.4555 2.74149C56.1341 2.74149 56.8224 2.74147 57.2903 2.81688C59.4943 3.1417 61.9187 4.3945 63.6258 6.10163C65.302 7.77782 66.3363 9.64349 66.8583 11.9615C67.1754 13.3439 67.0846 15.7315 66.6553 17.3478C65.7177 20.8278 62.8853 23.9095 59.5252 25.0889C58.2183 25.549 57.6673 25.6553 56.2173 25.6998C54.0809 25.7675 52.6309 25.5026 50.9238 24.7331C49.9726 24.3097 50.4482 24.2266 46.7845 25.4059C45.3055 25.8815 44.0585 26.2663 44.0218 26.2663C43.9675 26.2663 43.9522 26.2063 43.9522 26.1309C43.9522 26.0555 44.3833 24.7409 44.9053 23.2078C45.4254 21.6824 45.8488 20.3909 45.8488 20.3522C45.8488 20.2923 45.6671 19.8689 45.4486 19.3933C44.6559 17.634 44.3679 16.4411 44.2925 14.5832C44.2404 13.1332 44.3911 12.008 44.8222 10.701C46.1581 6.69902 49.5028 3.74491 53.6807 2.90004C54.11 2.80912 54.775 2.76473 55.4555 2.74149H55.4555ZM55.6353 4.73473C54.8891 4.73473 54.1409 4.78898 53.6807 4.88554C51.672 5.31668 50.0171 6.23888 48.6135 7.68887C47.3143 9.048 46.4829 10.6566 46.0905 12.6054C45.8855 13.6532 45.901 15.5807 46.1504 16.4933C46.3553 17.3323 46.914 18.6837 47.3432 19.3933C47.5172 19.6813 47.6525 19.9829 47.6525 20.0738C47.6525 20.1647 47.4418 20.9109 47.1847 21.7268C46.9276 22.5427 46.7168 23.2831 46.7168 23.3663C46.7168 23.608 46.914 23.5693 48.6888 23.0106L50.3109 22.4982L51.0823 22.8829C52.3351 23.517 53.642 23.9172 54.7904 24.0236C55.4014 24.0756 56.8668 24.0236 57.5319 23.8805C60.5518 23.3063 63.1888 21.2222 64.5557 18.3434C65.1667 17.0442 65.3175 16.3946 65.3639 14.8615C65.4159 13.8504 65.3639 13.3516 65.2729 12.8083C64.5692 8.75991 61.6634 5.74777 57.615 4.8855C57.1471 4.78877 56.3989 4.73469 55.6507 4.73469L55.6353 4.73473ZM51.9195 9.1756C52.0336 9.1756 52.1554 9.1756 52.252 9.1756C52.457 9.1756 52.6155 9.22766 52.6754 9.31091C52.9693 9.63573 53.6653 11.3196 53.733 11.8339C53.785 12.1664 53.733 12.2264 53.3695 12.7329C53.1143 13.0732 52.9693 13.3516 52.9693 13.4888C52.9693 14.0244 54.4812 15.7837 55.5155 16.4565C56.1497 16.8644 56.836 17.166 57.1473 17.166C57.4102 17.166 57.735 16.9012 58.2029 16.2902C58.5432 15.8514 58.5818 15.8282 58.8235 15.8668C58.9666 15.8668 59.6007 16.1471 60.2271 16.441L61.36 16.9688V17.3555C61.3671 17.9742 61.2169 18.3435 60.7781 18.7823C60.1826 19.3778 59.7592 19.5595 58.8525 19.5827C58.1739 19.5827 58.0443 19.5827 57.2903 19.3178C56.8301 19.1593 56.1496 18.8887 55.7571 18.7069C53.4681 17.6185 50.7111 14.5445 50.2278 12.5435C50.0847 11.9326 50.1757 10.8904 50.425 10.3839C50.6821 9.84838 51.2331 9.28967 51.5579 9.22202C51.6778 9.22202 51.7996 9.16774 51.9194 9.16774L51.9195 9.1756Z" fill="#F68C47"/>
<path d="M4.39447 0C1.95654 0 0 1.96427 0 4.39447V24.6055C0 27.0434 1.95654 29 4.39447 29H24.6055C27.0357 29 29 27.0434 29 24.6055V4.39447C29 1.96427 27.0357 0 24.6055 0H4.39447ZM10.7919 3.08171H18.1695C22.4305 3.08171 25.7984 6.8266 25.7984 11.3506V15.051C25.7984 19.575 22.4228 23.2232 18.1927 23.3199L11.8939 23.4649C11.1998 24.1512 10.4303 24.853 9.71114 25.3905C9.31096 25.6843 8.93394 25.9415 8.5724 26.1232C8.39067 26.2199 8.2244 26.2972 8.00594 26.3494C7.80097 26.4014 7.50713 26.4769 7.11467 26.2663C6.54047 25.9492 6.51727 25.5336 6.46507 25.2242C6.41082 24.9149 6.39739 24.5901 6.41082 24.2189C6.41082 23.6002 6.53259 22.8076 6.6525 22.0072C4.5993 20.3445 3.1725 17.9143 3.1725 15.051V11.3584C3.1725 6.83438 6.54037 3.08949 10.7918 3.08949L10.7919 3.08171ZM10.7919 4.90875C7.61927 4.90875 4.9996 7.7256 4.9996 11.3506V15.051C4.9996 17.5353 6.23887 19.6659 8.1258 20.9863L8.60139 21.3189L8.5028 21.8853C8.35198 22.7766 8.26884 23.577 8.24758 24.1667C8.37516 24.0836 8.47381 24.0391 8.62457 23.925C9.34184 23.3894 10.2099 22.6258 10.8904 21.924L11.1553 21.6591L18.1559 21.4928C21.3575 21.4251 23.9694 18.6837 23.9694 15.051V11.3583C23.9694 7.7256 21.3498 4.91648 18.1772 4.91648H10.7918L10.7919 4.90875ZM15.4589 7.12818C18.5252 7.12818 20.9941 9.71113 20.9941 12.8605C21.0017 13.1177 20.7988 13.3304 20.5417 13.3304C20.2845 13.3304 20.0738 13.1177 20.0815 12.8605C20.0815 10.1887 18.0109 8.04268 15.4589 8.04268C14.848 8.04268 14.848 7.12818 15.4589 7.12818ZM10.4303 7.83191C10.7687 7.88397 11.0935 8.17803 11.6232 8.88949C12.4835 10.0224 12.7175 10.6179 12.4603 11.0026C12.4004 11.078 12.1819 11.3351 11.9692 11.5555C11.6 11.948 11.5768 11.977 11.5768 12.2651C11.5768 12.6266 12.0157 13.5643 12.4603 14.1443C13.0345 14.9157 13.978 15.6696 14.6817 15.9268C15.3526 16.1685 15.7683 16.0853 16.124 15.6175C16.5242 15.082 16.9689 14.9679 17.5141 15.2405C18.2758 15.6252 19.5518 16.6595 19.7181 17.0365C19.8554 17.3324 19.5073 18.0032 18.9331 18.5851C18.4576 19.0607 18.0051 19.227 17.4599 19.1149C16.4855 18.9177 14.2197 17.6571 12.8315 16.5397C11.4337 15.4067 10.1655 13.7305 9.13887 11.6387C8.32301 9.96828 8.31527 9.46949 9.08461 8.63235C9.25861 8.44289 9.56019 8.19349 9.75741 8.05815C10.0145 7.89961 10.2175 7.81644 10.4148 7.83195L10.4303 7.83191ZM15.5189 8.97261C15.5342 8.97261 15.5496 8.97261 15.5731 8.97261C17.5896 8.97261 19.2136 10.672 19.2136 12.7407C19.2273 12.9978 19.0164 13.2085 18.7593 13.2085C18.5021 13.2085 18.2992 12.9978 18.3069 12.7407C18.3069 11.1476 17.0753 9.88515 15.5731 9.88515C14.9603 9.92406 14.9081 9.00934 15.5189 8.97261H15.5189ZM15.2405 10.4361C15.2635 10.4361 15.2772 10.4361 15.2925 10.4361C16.6826 10.4361 17.7923 11.6 17.7923 13.0113C17.7923 13.2608 17.5893 13.4656 17.3322 13.4656C17.0828 13.4656 16.8779 13.2607 16.8779 13.0113C16.8779 12.0756 16.1683 11.3506 15.2925 11.3506C14.6893 11.3895 14.6352 10.4748 15.2405 10.4361H15.2405Z" fill="#F68C47"/>
</svg>
