<svg width="29" height="29" viewBox="0 0 29 29" fill="none" xmlns="http://www.w3.org/2000/svg">
<path fill-rule="evenodd" clip-rule="evenodd" d="M5 0C2.23828 0 0 2.23853 0 5V24C0 26.7615 2.23828 29 5 29H24C26.7617 29 29 26.7615 29 24V5C29 2.23853 26.7617 0 24 0H5ZM23.708 4.02295C23.9863 4.07275 24.2471 4.20166 24.46 4.39575C24.6748 4.58911 24.835 4.84058 24.9229 5.1228C24.9707 5.27637 24.9961 5.43604 24.999 5.59619C25.002 5.73022 24.9893 5.86475 24.96 5.99658L21.3125 22.7314C21.2539 23.0076 21.127 23.2625 20.9453 23.4709C20.7637 23.6794 20.5332 23.8342 20.2764 23.9197C20.1211 23.9727 19.959 23.9998 19.7959 24C19.4199 23.9995 19.0566 23.8542 18.7754 23.5918L14.957 20.0588L12.4414 22.7041C12.2246 22.9324 11.9482 23.0881 11.6475 23.1511C11.3457 23.2141 11.0342 23.1819 10.75 23.0583C10.4668 22.9348 10.2246 22.7256 10.0537 22.4573C9.88379 22.1887 9.79297 21.8733 9.79297 21.5503V15.5803L5.24707 14.624C4.91797 14.5549 4.62012 14.3757 4.39648 14.1135C4.17285 13.8511 4.03613 13.5195 4.00586 13.1687C3.97656 12.8176 4.05566 12.4661 4.23242 12.1663C4.4082 11.8667 4.67188 11.635 4.98438 11.5061L22.8809 4.11353C23.1436 4.00464 23.4297 3.97314 23.708 4.02295ZM5.55176 13.0247L10.3887 14.0417L19.0967 7.42944L5.55176 13.0247ZM11.3447 16.7158V21.5496L13.79 18.9788L11.3447 16.7158ZM11.8105 14.9744L19.8008 22.3669L23.3164 6.23755L11.8105 14.9744Z" fill="#F68C47"/>
</svg>
