<svg width="29" height="29" viewBox="0 0 29 29" fill="none" xmlns="http://www.w3.org/2000/svg">
<path fill-rule="evenodd" clip-rule="evenodd" d="M5 0C2.23858 0 0 2.23858 0 5V24C0 26.7614 2.23858 29 5 29H24C26.7614 29 29 26.7614 29 24V5C29 2.23858 26.7614 0 24 0H5ZM23.708 4.02299C23.9864 4.07271 24.2466 4.20159 24.4604 4.39565V4.39575C24.6747 4.5892 24.8346 4.84063 24.9227 5.12281C25.0109 5.40498 25.0239 5.70714 24.9603 5.99653L21.3129 22.7315C21.2541 23.0075 21.1274 23.2625 20.9456 23.471C20.7638 23.6795 20.5332 23.8342 20.2767 23.9198C20.1213 23.9727 19.9589 23.9998 19.7955 24C19.4195 23.9995 19.0567 23.8543 18.7756 23.5918L14.9573 20.0588L12.4415 22.704C12.2246 22.9324 11.9481 23.088 11.6471 23.1511C11.346 23.2142 11.0339 23.182 10.7503 23.0584C10.4667 22.9349 10.2243 22.7257 10.0539 22.4572C9.88347 22.1888 9.79264 21.8732 9.79291 21.5504V15.5803L5.247 14.6241C4.91841 14.555 4.61994 14.3758 4.39625 14.1134C4.17256 13.8511 4.03567 13.5196 4.00607 13.1686C3.97646 12.8176 4.05573 12.466 4.23202 12.1663C4.4083 11.8667 4.67213 11.6351 4.98402 11.5062L22.8807 4.11353C23.1434 4.00457 23.4295 3.97326 23.708 4.02299ZM5.55149 13.0246L10.3889 14.0418L19.0965 7.42938L5.55149 13.0246ZM11.3444 16.7158V21.5496L13.7901 18.9787L11.3444 16.7158ZM11.8109 14.9743L19.8005 22.367L23.316 6.23757L11.8109 14.9743Z" fill="#0088CC"/>
</svg>
